<svg xmlns="http://www.w3.org/2000/svg" width="72" height="72" viewBox="0 0 72 72" fill="none">
    <circle cx="36" cy="36" r="36" fill="#F7F8FA"/>
    <path d="M40.2357 49.6929C32.5531 52.2595 24.2138 48.0971 21.6471 40.4142C19.0803 32.7309 23.2427 24.3923 30.9259 21.8255C34.6982 20.5653 38.7286 20.8703 42.2735 22.6848C42.5796 22.8415 42.7005 23.2165 42.5442 23.5221C42.388 23.828 42.0134 23.9493 41.7069 23.7928C38.4623 22.1319 34.7737 21.8527 31.3205 23.0063C24.2884 25.3551 20.4784 32.9874 22.8277 40.0194C25.1769 47.0514 32.8092 50.8613 39.8414 48.512C44.5336 46.9444 47.9783 42.9396 48.8308 38.0603C48.8897 37.7219 49.2122 37.4947 49.5508 37.5549C49.8894 37.6142 50.1159 37.9364 50.0562 38.2748C49.1252 43.6046 45.3621 47.9796 40.236 49.6922L40.2357 49.6929Z" fill="#9E9EB4"/>
    <mask id="path-3-inside-1_23566_196063" fill="white">
        <path d="M39.2055 32.9024C39.4206 32.6945 39.4282 32.3489 39.1982 32.1576C38.5815 31.6443 37.848 31.2852 37.0586 31.1141C36.0922 30.9047 35.0853 30.9866 34.1653 31.3494C33.2454 31.7122 32.4537 32.3396 31.8903 33.1524C31.327 33.9652 31.0173 34.9267 31.0005 35.9155C30.9836 36.9042 31.2603 37.8758 31.7956 38.7073C32.331 39.5388 33.1008 40.1929 34.0079 40.5868C34.9149 40.9808 35.9184 41.0969 36.8915 40.9205C37.6862 40.7765 38.4315 40.4426 39.0654 39.9506C39.3017 39.7672 39.306 39.4216 39.0981 39.2065C38.8901 38.9914 38.5491 38.9891 38.3073 39.1653C37.8317 39.5122 37.282 39.7487 36.6982 39.8545C35.936 39.9927 35.15 39.9017 34.4394 39.5931C33.7289 39.2845 33.1259 38.7722 32.7066 38.1208C32.2872 37.4695 32.0705 36.7085 32.0837 35.9339C32.0969 35.1594 32.3395 34.4062 32.7807 33.7695C33.222 33.1329 33.8422 32.6414 34.5628 32.3572C35.2834 32.073 36.0721 32.0089 36.8292 32.1729C37.409 32.2986 37.9503 32.5537 38.4139 32.9166C38.6495 33.101 38.9904 33.1103 39.2055 32.9024Z"/>
    </mask>
    <path d="M39.2055 32.9024C39.4206 32.6945 39.4282 32.3489 39.1982 32.1576C38.5815 31.6443 37.848 31.2852 37.0586 31.1141C36.0922 30.9047 35.0853 30.9866 34.1653 31.3494C33.2454 31.7122 32.4537 32.3396 31.8903 33.1524C31.327 33.9652 31.0173 34.9267 31.0005 35.9155C30.9836 36.9042 31.2603 37.8758 31.7956 38.7073C32.331 39.5388 33.1008 40.1929 34.0079 40.5868C34.9149 40.9808 35.9184 41.0969 36.8915 40.9205C37.6862 40.7765 38.4315 40.4426 39.0654 39.9506C39.3017 39.7672 39.306 39.4216 39.0981 39.2065C38.8901 38.9914 38.5491 38.9891 38.3073 39.1653C37.8317 39.5122 37.282 39.7487 36.6982 39.8545C35.936 39.9927 35.15 39.9017 34.4394 39.5931C33.7289 39.2845 33.1259 38.7722 32.7066 38.1208C32.2872 37.4695 32.0705 36.7085 32.0837 35.9339C32.0969 35.1594 32.3395 34.4062 32.7807 33.7695C33.222 33.1329 33.8422 32.6414 34.5628 32.3572C35.2834 32.073 36.0721 32.0089 36.8292 32.1729C37.409 32.2986 37.9503 32.5537 38.4139 32.9166C38.6495 33.101 38.9904 33.1103 39.2055 32.9024Z" stroke="#9E9EB4" stroke-width="2" stroke-linejoin="round" mask="url(#path-3-inside-1_23566_196063)"/>
    <line x1="36" y1="29.5" x2="36" y2="31.5" stroke="#9E9EB4" stroke-linecap="round"/>
    <line x1="36" y1="40.5" x2="36" y2="42.5" stroke="#9E9EB4" stroke-linecap="round"/>
    <circle cx="49" cy="29" r="6" fill="#085BCB"/>
    <path d="M51.1738 28.7113H49.3034V26.8409C49.3034 26.679 49.1595 26.5352 48.9977 26.5352C48.8358 26.5352 48.6919 26.679 48.6919 26.8409L48.6918 28.7113H46.8214C46.6595 28.7113 46.5156 28.8552 46.5156 29.0171C46.5156 29.179 46.6595 29.3228 46.8214 29.3228H48.6918V31.1932C48.6918 31.3551 48.8357 31.499 48.9975 31.499C49.1594 31.499 49.3033 31.3551 49.3033 31.1932L49.3034 29.3049H51.1738C51.3357 29.3049 51.4796 29.161 51.4796 28.9992C51.4796 28.8373 51.3356 28.7113 51.1738 28.7113V28.7113Z" fill="white"/>
</svg>