<svg width="28" height="28" viewBox="0 0 28 28" fill="none" xmlns="http://www.w3.org/2000/svg">
    <path fill-rule="evenodd" clip-rule="evenodd" d="M28 14C28 21.732 21.732 28 14 28C6.26801 28 0 21.732 0 14C0 6.26801 6.26801 0 14 0C21.732 0 28 6.26801 28 14ZM15.75 21C15.75 21.9665 14.9665 22.75 14 22.75C13.0335 22.75 12.25 21.9665 12.25 21C12.25 20.0335 13.0335 19.25 14 19.25C14.9665 19.25 15.75 20.0335 15.75 21ZM14 5.25C13.0335 5.25 12.25 6.0335 12.25 7V14C12.25 14.9665 13.0335 15.75 14 15.75C14.9665 15.75 15.75 14.9665 15.75 14V7C15.75 6.0335 14.9665 5.25 14 5.25Z" fill="#D84049"></path>
</svg>