<svg width="324" height="30" viewBox="0 0 324 30" fill="none" xmlns="http://www.w3.org/2000/svg">
<g clip-path="url(#clip0_1_70)">
<path d="M22.7229 3.63867H0V26.3616H22.7229V3.63867Z" fill="#0C3A2F"/>
<path d="M47.3394 3.63867H24.6165V26.3616H47.3394V3.63867Z" fill="#0C3A2F"/>
<path d="M71.9559 3.63867H49.233V26.3616H71.9559V3.63867Z" fill="#0C3A2F"/>
<path d="M96.5724 3.63867H73.8495V26.3616H96.5724V3.63867Z" fill="#0C3A2F"/>
<path d="M121.189 3.63867H98.466V26.3616H121.189V3.63867Z" fill="#0C3A2F"/>
<path d="M11.3612 18.9534L14.817 18.0777L16.2609 22.5276L11.3612 18.9534ZM19.3142 13.2017H13.2311L11.3612 7.47363L9.49132 13.2017H3.4082L8.3315 16.7522L6.46159 22.4802L11.3849 18.9298L14.4146 16.7522L19.3142 13.2017Z" fill="white"/>
<path d="M35.9777 18.9534L39.4335 18.0777L40.8773 22.5276L35.9777 18.9534ZM43.9307 13.2017H37.8476L35.9777 7.47363L34.1078 13.2017H28.0247L32.948 16.7522L31.078 22.4802L36.0013 18.9298L39.0311 16.7522L43.9307 13.2017Z" fill="white"/>
<path d="M60.5942 18.9534L64.05 18.0777L65.4938 22.5276L60.5942 18.9534ZM68.5472 13.2017H62.4641L60.5942 7.47363L58.7243 13.2017H52.6412L57.5645 16.7522L55.6946 22.4802L60.6179 18.9298L63.6476 16.7522L68.5472 13.2017Z" fill="white"/>
<path d="M85.2106 18.9534L88.6664 18.0777L90.1103 22.5276L85.2106 18.9534ZM93.1637 13.2017H87.0806L85.2106 7.47363L83.3407 13.2017H77.2576L82.1809 16.7522L80.311 22.4802L85.2343 18.9298L88.264 16.7522L93.1637 13.2017Z" fill="white"/>
<path d="M109.827 18.9534L113.283 18.0777L114.727 22.5276L109.827 18.9534ZM117.78 13.2017H111.697L109.827 7.47363L107.957 13.2017H101.874L106.797 16.7522L104.928 22.4802L109.851 18.9298L112.881 16.7522L117.78 13.2017Z" fill="white"/>
</g>
<path d="M143.415 15.3785V16.883H136.431L136.338 15.718L140.379 9.30726H141.904L140.253 12.07L138.242 15.3785H143.415ZM142.316 9.30726V19H140.399V9.30726H142.316ZM146.417 13.3215H147.442C147.771 13.3215 148.041 13.266 148.254 13.1551C148.467 13.0397 148.625 12.8799 148.727 12.6758C148.834 12.4672 148.887 12.2253 148.887 11.9501C148.887 11.7016 148.838 11.4819 148.74 11.2911C148.647 11.0958 148.503 10.9449 148.308 10.8384C148.112 10.7274 147.866 10.672 147.569 10.672C147.334 10.672 147.116 10.7186 146.916 10.8118C146.717 10.905 146.557 11.0359 146.437 11.2045C146.317 11.3732 146.257 11.5773 146.257 11.817H144.333C144.333 11.2844 144.475 10.8206 144.759 10.4257C145.048 10.0307 145.434 9.72222 145.918 9.50031C146.402 9.27841 146.934 9.16746 147.516 9.16746C148.172 9.16746 148.747 9.27397 149.24 9.487C149.732 9.69559 150.116 10.004 150.391 10.4123C150.667 10.8206 150.804 11.3266 150.804 11.9302C150.804 12.2364 150.733 12.5337 150.591 12.8222C150.449 13.1062 150.245 13.3637 149.979 13.5944C149.717 13.8208 149.397 14.0027 149.02 14.1403C148.643 14.2735 148.219 14.34 147.749 14.34H146.417V13.3215ZM146.417 14.7794V13.7875H147.749C148.277 13.7875 148.74 13.8474 149.14 13.9672C149.539 14.0871 149.874 14.2601 150.145 14.4865C150.416 14.7084 150.62 14.9725 150.758 15.2787C150.895 15.5805 150.964 15.9155 150.964 16.2839C150.964 16.7366 150.877 17.1404 150.704 17.4955C150.531 17.8461 150.287 18.1435 149.972 18.3875C149.661 18.6316 149.297 18.818 148.88 18.9467C148.463 19.071 148.008 19.1331 147.516 19.1331C147.107 19.1331 146.706 19.0777 146.311 18.9667C145.92 18.8513 145.565 18.6805 145.245 18.4541C144.93 18.2233 144.677 17.9349 144.487 17.5887C144.3 17.2381 144.207 16.8231 144.207 16.3438H146.131C146.131 16.5923 146.193 16.8143 146.317 17.0095C146.441 17.2048 146.612 17.3579 146.83 17.4689C147.052 17.5798 147.298 17.6353 147.569 17.6353C147.875 17.6353 148.137 17.5798 148.354 17.4689C148.576 17.3535 148.745 17.1937 148.86 16.9896C148.98 16.781 149.04 16.5391 149.04 16.2639C149.04 15.9089 148.976 15.6248 148.847 15.4118C148.718 15.1944 148.534 15.0346 148.294 14.9325C148.055 14.8304 147.771 14.7794 147.442 14.7794H146.417ZM157.228 9.2074H157.508V10.7385H157.395C156.889 10.7385 156.438 10.814 156.043 10.9649C155.648 11.1158 155.313 11.331 155.038 11.6106C154.767 11.8858 154.559 12.2186 154.412 12.6092C154.27 12.9997 154.199 13.4369 154.199 13.9206V15.5316C154.199 15.8778 154.233 16.184 154.299 16.4503C154.37 16.7122 154.47 16.9319 154.599 17.1094C154.732 17.2825 154.887 17.4134 155.065 17.5022C155.242 17.5865 155.442 17.6286 155.664 17.6286C155.872 17.6286 156.061 17.5843 156.23 17.4955C156.403 17.4067 156.549 17.2825 156.669 17.1227C156.793 16.9585 156.886 16.7677 156.949 16.5502C157.015 16.3283 157.048 16.0864 157.048 15.8246C157.048 15.5627 157.015 15.3208 156.949 15.0989C156.886 14.877 156.793 14.6862 156.669 14.5264C156.545 14.3622 156.394 14.2357 156.216 14.147C156.039 14.0582 155.839 14.0138 155.617 14.0138C155.315 14.0138 155.049 14.0848 154.818 14.2269C154.592 14.3644 154.414 14.542 154.286 14.7594C154.157 14.9769 154.088 15.2055 154.079 15.4451L153.5 15.0723C153.514 14.7306 153.585 14.4066 153.713 14.1004C153.846 13.7941 154.028 13.5234 154.259 13.2882C154.494 13.0485 154.776 12.8622 155.105 12.729C155.433 12.5914 155.804 12.5226 156.216 12.5226C156.669 12.5226 157.066 12.6092 157.408 12.7823C157.754 12.9553 158.043 13.1928 158.273 13.4946C158.504 13.7964 158.677 14.1448 158.793 14.5397C158.908 14.9347 158.966 15.3563 158.966 15.8046C158.966 16.275 158.888 16.7122 158.733 17.116C158.582 17.5199 158.362 17.8727 158.074 18.1745C157.79 18.4763 157.448 18.7115 157.048 18.8802C156.649 19.0488 156.201 19.1331 155.704 19.1331C155.189 19.1331 154.721 19.0399 154.299 18.8535C153.882 18.6627 153.522 18.3964 153.221 18.0547C152.919 17.713 152.686 17.3069 152.522 16.8364C152.362 16.366 152.282 15.8512 152.282 15.292V14.5464C152.282 13.7653 152.395 13.0508 152.622 12.4028C152.852 11.7504 153.183 11.1868 153.613 10.7119C154.044 10.2326 154.563 9.86202 155.171 9.60017C155.779 9.33832 156.465 9.2074 157.228 9.2074ZM165.01 12.9287V19H163.779V11.797H164.977L165.01 12.9287ZM167.26 11.7571L167.254 12.9021C167.152 12.8799 167.054 12.8666 166.961 12.8622C166.872 12.8533 166.77 12.8488 166.655 12.8488C166.371 12.8488 166.12 12.8932 165.902 12.982C165.685 13.0707 165.501 13.195 165.35 13.3548C165.199 13.5145 165.079 13.7054 164.99 13.9273C164.906 14.1448 164.851 14.3844 164.824 14.6463L164.478 14.846C164.478 14.411 164.52 14.0027 164.604 13.6211C164.693 13.2394 164.828 12.9021 165.01 12.6092C165.192 12.3118 165.423 12.081 165.703 11.9168C165.987 11.7482 166.324 11.6639 166.715 11.6639C166.803 11.6639 166.905 11.675 167.021 11.6972C167.136 11.7149 167.216 11.7349 167.26 11.7571ZM171.255 19.1331C170.753 19.1331 170.298 19.0488 169.89 18.8802C169.486 18.7071 169.138 18.4652 168.845 18.1545C168.556 17.8439 168.334 17.4755 168.179 17.0495C168.024 16.6234 167.946 16.1574 167.946 15.6515V15.3719C167.946 14.7861 168.033 14.2646 168.206 13.8075C168.379 13.3459 168.614 12.9553 168.911 12.6358C169.209 12.3163 169.546 12.0744 169.923 11.9102C170.301 11.746 170.691 11.6639 171.095 11.6639C171.61 11.6639 172.054 11.7526 172.426 11.9302C172.804 12.1077 173.112 12.3562 173.352 12.6758C173.591 12.9909 173.769 13.3637 173.884 13.7941C174 14.2202 174.057 14.6862 174.057 15.1921V15.7447H168.678V14.7395H172.826V14.6463C172.808 14.3267 172.741 14.016 172.626 13.7143C172.515 13.4125 172.338 13.1639 172.094 12.9687C171.849 12.7734 171.517 12.6758 171.095 12.6758C170.815 12.6758 170.558 12.7357 170.323 12.8555C170.088 12.9709 169.886 13.144 169.717 13.3747C169.548 13.6055 169.417 13.8873 169.324 14.2202C169.231 14.5531 169.184 14.9369 169.184 15.3719V15.6515C169.184 15.9932 169.231 16.315 169.324 16.6168C169.422 16.9141 169.562 17.176 169.744 17.4023C169.93 17.6286 170.154 17.8062 170.416 17.9349C170.682 18.0636 170.984 18.1279 171.321 18.1279C171.756 18.1279 172.125 18.0392 172.426 17.8616C172.728 17.6841 172.992 17.4467 173.219 17.1493L173.964 17.7418C173.809 17.977 173.611 18.2011 173.372 18.4142C173.132 18.6272 172.837 18.8003 172.486 18.9334C172.14 19.0666 171.73 19.1331 171.255 19.1331ZM177.592 17.8883L179.563 11.797H180.821L178.231 19H177.406L177.592 17.8883ZM175.948 11.797L177.978 17.9215L178.118 19H177.293L174.683 11.797H175.948ZM183.344 11.797V19H182.106V11.797H183.344ZM182.013 9.88642C182.013 9.68671 182.073 9.51806 182.192 9.38048C182.317 9.2429 182.499 9.17411 182.738 9.17411C182.973 9.17411 183.153 9.2429 183.277 9.38048C183.406 9.51806 183.471 9.68671 183.471 9.88642C183.471 10.0773 183.406 10.2415 183.277 10.3791C183.153 10.5122 182.973 10.5788 182.738 10.5788C182.499 10.5788 182.317 10.5122 182.192 10.3791C182.073 10.2415 182.013 10.0773 182.013 9.88642ZM188.31 19.1331C187.809 19.1331 187.354 19.0488 186.946 18.8802C186.542 18.7071 186.193 18.4652 185.9 18.1545C185.612 17.8439 185.39 17.4755 185.235 17.0495C185.079 16.6234 185.002 16.1574 185.002 15.6515V15.3719C185.002 14.7861 185.088 14.2646 185.261 13.8075C185.434 13.3459 185.67 12.9553 185.967 12.6358C186.264 12.3163 186.602 12.0744 186.979 11.9102C187.356 11.746 187.747 11.6639 188.15 11.6639C188.665 11.6639 189.109 11.7526 189.482 11.9302C189.859 12.1077 190.168 12.3562 190.407 12.6758C190.647 12.9909 190.824 13.3637 190.94 13.7941C191.055 14.2202 191.113 14.6862 191.113 15.1921V15.7447H185.734V14.7395H189.881V14.6463C189.864 14.3267 189.797 14.016 189.682 13.7143C189.571 13.4125 189.393 13.1639 189.149 12.9687C188.905 12.7734 188.572 12.6758 188.15 12.6758C187.871 12.6758 187.613 12.7357 187.378 12.8555C187.143 12.9709 186.941 13.144 186.772 13.3747C186.604 13.6055 186.473 13.8873 186.38 14.2202C186.286 14.5531 186.24 14.9369 186.24 15.3719V15.6515C186.24 15.9932 186.286 16.315 186.38 16.6168C186.477 16.9141 186.617 17.176 186.799 17.4023C186.985 17.6286 187.21 17.8062 187.471 17.9349C187.738 18.0636 188.04 18.1279 188.377 18.1279C188.812 18.1279 189.18 18.0392 189.482 17.8616C189.784 17.6841 190.048 17.4467 190.274 17.1493L191.02 17.7418C190.864 17.977 190.667 18.2011 190.427 18.4142C190.188 18.6272 189.892 18.8003 189.542 18.9334C189.196 19.0666 188.785 19.1331 188.31 19.1331ZM194.375 17.7218L196.226 11.797H197.038L196.878 12.9753L194.994 19H194.202L194.375 17.7218ZM193.13 11.797L194.708 17.7884L194.821 19H193.989L191.898 11.797H193.13ZM198.808 17.7418L200.313 11.797H201.538L199.448 19H198.622L198.808 17.7418ZM197.217 11.797L199.028 17.622L199.235 19H198.449L196.512 12.962L196.352 11.797H197.217ZM206.997 17.0894C206.997 16.9119 206.957 16.7477 206.877 16.5968C206.801 16.4415 206.644 16.3017 206.404 16.1774C206.169 16.0487 205.814 15.9377 205.339 15.8445C204.94 15.7602 204.578 15.6604 204.254 15.545C203.934 15.4296 203.662 15.2898 203.435 15.1256C203.213 14.9614 203.042 14.7683 202.923 14.5464C202.803 14.3245 202.743 14.0649 202.743 13.7675C202.743 13.4835 202.805 13.215 202.929 12.962C203.058 12.709 203.238 12.4849 203.468 12.2896C203.704 12.0944 203.985 11.9413 204.314 11.8303C204.642 11.7193 205.008 11.6639 205.412 11.6639C205.989 11.6639 206.482 11.7659 206.89 11.9701C207.299 12.1742 207.611 12.4472 207.829 12.7889C208.046 13.1262 208.155 13.5012 208.155 13.914H206.923C206.923 13.7143 206.864 13.5212 206.744 13.3348C206.628 13.144 206.457 12.9864 206.231 12.8622C206.009 12.7379 205.736 12.6758 205.412 12.6758C205.071 12.6758 204.793 12.729 204.58 12.8355C204.372 12.9376 204.218 13.0685 204.121 13.2283C204.028 13.3881 203.981 13.5567 203.981 13.7342C203.981 13.8674 204.003 13.9872 204.048 14.0937C204.096 14.1958 204.181 14.2912 204.301 14.38C204.42 14.4643 204.589 14.5442 204.807 14.6196C205.024 14.6951 205.301 14.7705 205.639 14.846C206.229 14.9791 206.715 15.1389 207.097 15.3253C207.478 15.5117 207.762 15.7402 207.949 16.011C208.135 16.2817 208.228 16.6101 208.228 16.9962C208.228 17.3113 208.162 17.5998 208.029 17.8616C207.9 18.1235 207.711 18.3498 207.463 18.5407C207.219 18.7271 206.926 18.8735 206.584 18.98C206.247 19.0821 205.867 19.1331 205.446 19.1331C204.811 19.1331 204.274 19.02 203.835 18.7936C203.395 18.5673 203.062 18.2744 202.836 17.9149C202.61 17.5554 202.497 17.176 202.497 16.7765H203.735C203.752 17.1138 203.85 17.3823 204.028 17.582C204.205 17.7773 204.423 17.9171 204.68 18.0014C204.937 18.0813 205.193 18.1213 205.446 18.1213C205.783 18.1213 206.065 18.0769 206.291 17.9881C206.522 17.8994 206.697 17.7773 206.817 17.622C206.937 17.4666 206.997 17.2891 206.997 17.0894ZM212.902 15.4784V15.3253C212.902 14.806 212.977 14.3245 213.128 13.8807C213.279 13.4324 213.496 13.0441 213.78 12.7157C214.064 12.3828 214.408 12.1254 214.812 11.9435C215.216 11.7571 215.669 11.6639 216.17 11.6639C216.676 11.6639 217.131 11.7571 217.535 11.9435C217.943 12.1254 218.289 12.3828 218.573 12.7157C218.862 13.0441 219.082 13.4324 219.232 13.8807C219.383 14.3245 219.459 14.806 219.459 15.3253V15.4784C219.459 15.9976 219.383 16.4792 219.232 16.923C219.082 17.3668 218.862 17.7551 218.573 18.088C218.289 18.4164 217.945 18.6738 217.542 18.8602C217.142 19.0422 216.689 19.1331 216.184 19.1331C215.678 19.1331 215.223 19.0422 214.819 18.8602C214.415 18.6738 214.069 18.4164 213.78 18.088C213.496 17.7551 213.279 17.3668 213.128 16.923C212.977 16.4792 212.902 15.9976 212.902 15.4784ZM214.133 15.3253V15.4784C214.133 15.8379 214.175 16.1774 214.26 16.4969C214.344 16.812 214.47 17.0916 214.639 17.3357C214.812 17.5798 215.027 17.7729 215.285 17.9149C215.542 18.0525 215.842 18.1213 216.184 18.1213C216.521 18.1213 216.816 18.0525 217.069 17.9149C217.326 17.7729 217.539 17.5798 217.708 17.3357C217.877 17.0916 218.003 16.812 218.087 16.4969C218.176 16.1774 218.221 15.8379 218.221 15.4784V15.3253C218.221 14.9702 218.176 14.6352 218.087 14.3201C218.003 14.0005 217.874 13.7187 217.701 13.4746C217.533 13.2261 217.32 13.0308 217.062 12.8888C216.809 12.7468 216.512 12.6758 216.17 12.6758C215.833 12.6758 215.536 12.7468 215.278 12.8888C215.025 13.0308 214.812 13.2261 214.639 13.4746C214.47 13.7187 214.344 14.0005 214.26 14.3201C214.175 14.6352 214.133 14.9702 214.133 15.3253ZM222.235 13.3348V19H221.003V11.797H222.168L222.235 13.3348ZM221.942 15.1256L221.429 15.1056C221.434 14.613 221.507 14.1581 221.649 13.7409C221.791 13.3193 221.991 12.9531 222.248 12.6425C222.506 12.3318 222.812 12.0921 223.167 11.9235C223.526 11.7504 223.924 11.6639 224.358 11.6639C224.713 11.6639 225.033 11.7127 225.317 11.8103C225.601 11.9035 225.843 12.0544 226.043 12.263C226.247 12.4716 226.402 12.7423 226.509 13.0752C226.615 13.4036 226.668 13.8052 226.668 14.2801V19H225.43V14.2668C225.43 13.8896 225.375 13.5878 225.264 13.3614C225.153 13.1307 224.991 12.9642 224.778 12.8622C224.565 12.7556 224.303 12.7024 223.992 12.7024C223.686 12.7024 223.406 12.7667 223.154 12.8954C222.905 13.0241 222.69 13.2017 222.508 13.428C222.33 13.6543 222.19 13.914 222.088 14.2069C221.991 14.4954 221.942 14.8016 221.942 15.1256Z" fill="#090909"/>
<path d="M250.682 18.953L254.137 18.0772L255.581 22.5271L250.682 18.953ZM258.635 13.2012H252.552L250.682 7.47314L248.812 13.2012H242.729L247.652 16.7517L245.782 22.4797L250.705 18.9293L253.735 16.7517L258.635 13.2012Z" fill="#63D28E"/>
<path d="M268.378 9.30726V19H266.388V9.30726H268.378ZM271.361 9.30726V10.8717H263.452V9.30726H271.361ZM273.831 13.3681V19H271.913V11.797H273.717L273.831 13.3681ZM276.001 11.7504L275.968 13.5279C275.874 13.5145 275.761 13.5035 275.628 13.4946C275.499 13.4813 275.382 13.4746 275.275 13.4746C275.005 13.4746 274.769 13.5101 274.57 13.5811C274.374 13.6477 274.21 13.7475 274.077 13.8807C273.948 14.0138 273.851 14.1758 273.784 14.3667C273.722 14.5575 273.686 14.775 273.678 15.0191L273.291 14.8992C273.291 14.4332 273.338 14.005 273.431 13.6144C273.524 13.2194 273.66 12.8755 273.837 12.5826C274.019 12.2896 274.241 12.0633 274.503 11.9035C274.765 11.7438 275.064 11.6639 275.402 11.6639C275.508 11.6639 275.617 11.6727 275.728 11.6905C275.839 11.7038 275.93 11.7238 276.001 11.7504ZM281.167 17.2758V11.797H283.084V19H281.28L281.167 17.2758ZM281.38 15.7979L281.946 15.7846C281.946 16.2639 281.89 16.71 281.779 17.1227C281.668 17.531 281.502 17.886 281.28 18.1878C281.058 18.4852 280.778 18.7182 280.441 18.8868C280.104 19.051 279.707 19.1331 279.25 19.1331C278.899 19.1331 278.575 19.0843 278.278 18.9867C277.985 18.8846 277.732 18.7271 277.519 18.514C277.31 18.2966 277.146 18.0192 277.026 17.6819C276.911 17.3402 276.853 16.9296 276.853 16.4503V11.797H278.77V16.4636C278.77 16.6767 278.795 16.8564 278.843 17.0029C278.897 17.1493 278.97 17.2692 279.063 17.3624C279.156 17.4556 279.265 17.5221 279.389 17.5621C279.518 17.602 279.66 17.622 279.815 17.622C280.21 17.622 280.521 17.5421 280.747 17.3823C280.978 17.2226 281.14 17.0051 281.233 16.7299C281.331 16.4503 281.38 16.1397 281.38 15.7979ZM288.443 17.0095C288.443 16.8719 288.403 16.7477 288.323 16.6367C288.243 16.5258 288.095 16.4237 287.877 16.3305C287.664 16.2329 287.356 16.1441 286.952 16.0642C286.588 15.9843 286.248 15.8845 285.933 15.7646C285.623 15.6404 285.352 15.4917 285.121 15.3186C284.895 15.1455 284.717 14.9414 284.589 14.7062C284.46 14.4665 284.395 14.1936 284.395 13.8873C284.395 13.5856 284.46 13.3015 284.589 13.0352C284.722 12.769 284.91 12.5337 285.154 12.3296C285.403 12.121 285.705 11.959 286.06 11.8436C286.419 11.7238 286.823 11.6639 287.271 11.6639C287.897 11.6639 288.434 11.7637 288.882 11.9634C289.335 12.1632 289.681 12.4383 289.921 12.7889C290.165 13.1351 290.287 13.5301 290.287 13.9739H288.37C288.37 13.7875 288.33 13.6211 288.25 13.4746C288.174 13.3237 288.055 13.2061 287.89 13.1218C287.731 13.033 287.522 12.9886 287.265 12.9886C287.052 12.9886 286.867 13.0264 286.712 13.1018C286.557 13.1728 286.437 13.2705 286.353 13.3947C286.273 13.5145 286.233 13.6477 286.233 13.7941C286.233 13.9051 286.255 14.005 286.299 14.0937C286.348 14.178 286.426 14.2557 286.532 14.3267C286.639 14.3977 286.777 14.4643 286.945 14.5264C287.118 14.5841 287.331 14.6374 287.584 14.6862C288.103 14.7927 288.567 14.9325 288.976 15.1056C289.384 15.2742 289.708 15.505 289.948 15.7979C290.187 16.0864 290.307 16.4659 290.307 16.9363C290.307 17.2558 290.236 17.5488 290.094 17.815C289.952 18.0813 289.748 18.3143 289.482 18.514C289.215 18.7093 288.896 18.8624 288.523 18.9734C288.155 19.0799 287.74 19.1331 287.278 19.1331C286.608 19.1331 286.04 19.0133 285.574 18.7737C285.112 18.534 284.762 18.23 284.522 17.8616C284.287 17.4888 284.169 17.1072 284.169 16.7166H285.987C285.995 16.9785 286.062 17.1893 286.186 17.349C286.315 17.5088 286.477 17.6242 286.672 17.6952C286.872 17.7662 287.087 17.8017 287.318 17.8017C287.566 17.8017 287.773 17.7684 287.937 17.7019C288.101 17.6309 288.226 17.5377 288.31 17.4223C288.399 17.3024 288.443 17.1649 288.443 17.0095ZM295.08 11.797V13.1551H290.886V11.797H295.08ZM291.925 10.0196H293.842V16.8298C293.842 17.0384 293.869 17.1981 293.922 17.3091C293.979 17.42 294.064 17.4977 294.175 17.5421C294.286 17.582 294.426 17.602 294.594 17.602C294.714 17.602 294.821 17.5976 294.914 17.5887C295.011 17.5754 295.093 17.5621 295.16 17.5488L295.167 18.9601C295.002 19.0133 294.825 19.0555 294.634 19.0865C294.443 19.1176 294.232 19.1331 294.002 19.1331C293.58 19.1331 293.212 19.0644 292.897 18.9268C292.586 18.7848 292.346 18.5584 292.178 18.2477C292.009 17.9371 291.925 17.5288 291.925 17.0228V10.0196ZM298.089 13.1817V21.7694H296.172V11.797H297.949L298.089 13.1817ZM302.649 15.3186V15.4584C302.649 15.9821 302.587 16.4681 302.463 16.9163C302.343 17.3646 302.166 17.7551 301.93 18.088C301.695 18.4164 301.402 18.6738 301.052 18.8602C300.705 19.0422 300.306 19.1331 299.853 19.1331C299.414 19.1331 299.032 19.0444 298.708 18.8669C298.384 18.6893 298.111 18.4408 297.889 18.1213C297.672 17.7973 297.497 17.4223 297.364 16.9962C297.23 16.5702 297.128 16.113 297.057 15.6248V15.2587C297.128 14.735 297.23 14.2557 297.364 13.8208C297.497 13.3814 297.672 13.0019 297.889 12.6824C298.111 12.3584 298.382 12.1077 298.702 11.9302C299.026 11.7526 299.405 11.6639 299.84 11.6639C300.297 11.6639 300.699 11.7504 301.045 11.9235C301.396 12.0966 301.688 12.3451 301.924 12.6691C302.163 12.9931 302.343 13.3792 302.463 13.8274C302.587 14.2757 302.649 14.7727 302.649 15.3186ZM300.725 15.4584V15.3186C300.725 15.0124 300.699 14.7306 300.645 14.4732C300.597 14.2113 300.517 13.9828 300.406 13.7875C300.299 13.5922 300.157 13.4413 299.98 13.3348C299.807 13.2239 299.596 13.1684 299.347 13.1684C299.085 13.1684 298.861 13.2105 298.675 13.2949C298.493 13.3792 298.344 13.5012 298.229 13.661C298.114 13.8208 298.027 14.0116 297.969 14.2335C297.912 14.4554 297.876 14.7062 297.863 14.9858V15.9111C297.885 16.2395 297.947 16.5347 298.049 16.7965C298.151 17.0539 298.309 17.2581 298.522 17.409C298.735 17.5598 299.014 17.6353 299.361 17.6353C299.614 17.6353 299.827 17.5798 300 17.4689C300.173 17.3535 300.313 17.1959 300.419 16.9962C300.53 16.7965 300.608 16.5657 300.652 16.3039C300.701 16.042 300.725 15.7602 300.725 15.4584ZM305.865 11.797V19H303.941V11.797H305.865ZM303.821 9.91971C303.821 9.64011 303.919 9.40933 304.114 9.22737C304.309 9.04541 304.571 8.95443 304.899 8.95443C305.223 8.95443 305.483 9.04541 305.678 9.22737C305.878 9.40933 305.978 9.64011 305.978 9.91971C305.978 10.1993 305.878 10.4301 305.678 10.612C305.483 10.794 305.223 10.885 304.899 10.885C304.571 10.885 304.309 10.794 304.114 10.612C303.919 10.4301 303.821 10.1993 303.821 9.91971ZM309.473 8.77469V19H307.549V8.77469H309.473ZM310.751 15.4717V15.3319C310.751 14.8038 310.826 14.3178 310.977 13.874C311.128 13.4258 311.348 13.0375 311.636 12.709C311.925 12.3806 312.28 12.1254 312.701 11.9435C313.123 11.7571 313.607 11.6639 314.153 11.6639C314.699 11.6639 315.185 11.7571 315.611 11.9435C316.037 12.1254 316.394 12.3806 316.682 12.709C316.975 13.0375 317.197 13.4258 317.348 13.874C317.499 14.3178 317.574 14.8038 317.574 15.3319V15.4717C317.574 15.9954 317.499 16.4814 317.348 16.9296C317.197 17.3734 316.975 17.7618 316.682 18.0946C316.394 18.4231 316.039 18.6782 315.617 18.8602C315.196 19.0422 314.712 19.1331 314.166 19.1331C313.62 19.1331 313.134 19.0422 312.708 18.8602C312.287 18.6782 311.929 18.4231 311.636 18.0946C311.348 17.7618 311.128 17.3734 310.977 16.9296C310.826 16.4814 310.751 15.9954 310.751 15.4717ZM312.668 15.3319V15.4717C312.668 15.7735 312.695 16.0553 312.748 16.3172C312.801 16.579 312.886 16.8098 313.001 17.0095C313.121 17.2048 313.276 17.3579 313.467 17.4689C313.658 17.5798 313.891 17.6353 314.166 17.6353C314.432 17.6353 314.661 17.5798 314.852 17.4689C315.043 17.3579 315.196 17.2048 315.311 17.0095C315.426 16.8098 315.511 16.579 315.564 16.3172C315.622 16.0553 315.651 15.7735 315.651 15.4717V15.3319C315.651 15.039 315.622 14.7639 315.564 14.5065C315.511 14.2446 315.424 14.0138 315.304 13.8141C315.189 13.61 315.036 13.4502 314.845 13.3348C314.654 13.2194 314.423 13.1617 314.153 13.1617C313.882 13.1617 313.651 13.2194 313.46 13.3348C313.274 13.4502 313.121 13.61 313.001 13.8141C312.886 14.0138 312.801 14.2446 312.748 14.5065C312.695 14.7639 312.668 15.039 312.668 15.3319ZM322.281 11.797V13.1551H318.087V11.797H322.281ZM319.126 10.0196H321.043V16.8298C321.043 17.0384 321.069 17.1981 321.123 17.3091C321.18 17.42 321.265 17.4977 321.376 17.5421C321.487 17.582 321.626 17.602 321.795 17.602C321.915 17.602 322.021 17.5976 322.115 17.5887C322.212 17.5754 322.294 17.5621 322.361 17.5488L322.368 18.9601C322.203 19.0133 322.026 19.0555 321.835 19.0865C321.644 19.1176 321.433 19.1331 321.203 19.1331C320.781 19.1331 320.413 19.0644 320.098 18.9268C319.787 18.7848 319.547 18.5584 319.379 18.2477C319.21 17.9371 319.126 17.5288 319.126 17.0228V10.0196Z" fill="#090909"/>
<defs>
<clipPath id="clip0_1_70">
<rect width="121.189" height="22.7229" fill="white" transform="translate(0 3.63867)"/>
</clipPath>
</defs>
</svg>
