<svg width="164" height="48" viewBox="0 0 164 48" fill="none" xmlns="http://www.w3.org/2000/svg">
<path d="M25 14H149C157.284 14 164 20.7157 164 29V33C164 41.2843 157.284 48 149 48H40C31.7157 48 25 41.2843 25 33V14Z" fill="#FFDA1E"/>
<path d="M53.7656 32.2578H55.9141C55.8568 33.0182 55.6458 33.6927 55.2812 34.2812C54.9167 34.8646 54.4089 35.3229 53.7578 35.6562C53.1068 35.9896 52.3177 36.1562 51.3906 36.1562C50.6771 36.1562 50.0339 36.0312 49.4609 35.7812C48.8932 35.526 48.4062 35.1641 48 34.6953C47.599 34.2214 47.2917 33.6536 47.0781 32.9922C46.8646 32.3255 46.7578 31.5781 46.7578 30.75V29.8828C46.7578 29.0547 46.8672 28.3073 47.0859 27.6406C47.3047 26.974 47.6172 26.4062 48.0234 25.9375C48.4349 25.4635 48.9271 25.099 49.5 24.8438C50.0781 24.5885 50.724 24.4609 51.4375 24.4609C52.3646 24.4609 53.1484 24.6328 53.7891 24.9766C54.4297 25.3151 54.9271 25.7812 55.2812 26.375C55.6354 26.9688 55.849 27.651 55.9219 28.4219H53.7734C53.7318 27.9427 53.6276 27.5365 53.4609 27.2031C53.2995 26.8698 53.0547 26.6172 52.7266 26.4453C52.4036 26.2682 51.974 26.1797 51.4375 26.1797C51.0208 26.1797 50.6536 26.2578 50.3359 26.4141C50.0234 26.5703 49.763 26.8047 49.5547 27.1172C49.3464 27.4245 49.1901 27.8099 49.0859 28.2734C48.9818 28.7318 48.9297 29.263 48.9297 29.8672V30.75C48.9297 31.3281 48.9766 31.8464 49.0703 32.3047C49.1641 32.763 49.3099 33.151 49.5078 33.4688C49.7057 33.7865 49.9609 34.0286 50.2734 34.1953C50.5859 34.362 50.9583 34.4453 51.3906 34.4453C51.9167 34.4453 52.3438 34.362 52.6719 34.1953C53.0052 34.0286 53.2578 33.7839 53.4297 33.4609C53.6068 33.138 53.7188 32.737 53.7656 32.2578ZM59.4844 29.2734V36H57.4219V27.5469H59.375L59.4844 29.2734ZM62.0547 27.4922L62.0234 29.4141C61.9089 29.3932 61.7786 29.3776 61.6328 29.3672C61.4922 29.3568 61.3594 29.3516 61.2344 29.3516C60.9167 29.3516 60.638 29.3958 60.3984 29.4844C60.1589 29.5677 59.9583 29.6901 59.7969 29.8516C59.6406 30.013 59.5208 30.2109 59.4375 30.4453C59.3542 30.6745 59.3073 30.9349 59.2969 31.2266L58.8516 31.1719C58.8516 30.6354 58.9062 30.138 59.0156 29.6797C59.125 29.2214 59.2839 28.8203 59.4922 28.4766C59.7005 28.1328 59.9609 27.8672 60.2734 27.6797C60.5911 27.487 60.9557 27.3906 61.3672 27.3906C61.4818 27.3906 61.6042 27.401 61.7344 27.4219C61.8698 27.4375 61.9766 27.4609 62.0547 27.4922ZM65.8047 35.0625L68.0703 27.5469H70.2812L66.8906 37.2812C66.8125 37.4896 66.7109 37.7161 66.5859 37.9609C66.4661 38.2057 66.3047 38.4375 66.1016 38.6562C65.8984 38.8802 65.6432 39.0625 65.3359 39.2031C65.0339 39.3438 64.6667 39.4141 64.2344 39.4141C64.0469 39.4141 63.8802 39.401 63.7344 39.375C63.5885 39.349 63.4349 39.3151 63.2734 39.2734V37.7266C63.3255 37.7318 63.3854 37.7344 63.4531 37.7344C63.526 37.7396 63.5885 37.7422 63.6406 37.7422C63.9427 37.7422 64.1927 37.7057 64.3906 37.6328C64.5885 37.5651 64.7474 37.4531 64.8672 37.2969C64.9922 37.1458 65.0964 36.9479 65.1797 36.7031L65.8047 35.0625ZM64.6875 27.5469L66.6016 33.7734L66.9375 35.9531L65.5156 36.2109L62.4609 27.5469H64.6875ZM73.3438 29.1719V39.25H71.2734V27.5469H73.1875L73.3438 29.1719ZM78.7734 31.6875V31.8516C78.7734 32.4661 78.7005 33.0365 78.5547 33.5625C78.4141 34.0833 78.2057 34.5391 77.9297 34.9297C77.6536 35.3151 77.3099 35.6172 76.8984 35.8359C76.4922 36.0495 76.0234 36.1562 75.4922 36.1562C74.9714 36.1562 74.5182 36.0573 74.1328 35.8594C73.7474 35.6562 73.4219 35.3698 73.1562 35C72.8906 34.6302 72.6771 34.2005 72.5156 33.7109C72.3594 33.2161 72.2422 32.6771 72.1641 32.0938V31.5703C72.2422 30.9505 72.3594 30.388 72.5156 29.8828C72.6771 29.3724 72.8906 28.9323 73.1562 28.5625C73.4219 28.1875 73.7448 27.8984 74.125 27.6953C74.5104 27.4922 74.9609 27.3906 75.4766 27.3906C76.013 27.3906 76.4844 27.4922 76.8906 27.6953C77.3021 27.8984 77.6484 28.1901 77.9297 28.5703C78.2109 28.9505 78.4219 29.4036 78.5625 29.9297C78.7031 30.4557 78.7734 31.0417 78.7734 31.6875ZM76.7031 31.8516V31.6875C76.7031 31.3125 76.6693 30.9661 76.6016 30.6484C76.5339 30.3255 76.4297 30.0443 76.2891 29.8047C76.1484 29.5599 75.9661 29.3698 75.7422 29.2344C75.5182 29.099 75.2474 29.0312 74.9297 29.0312C74.612 29.0312 74.3385 29.0833 74.1094 29.1875C73.8802 29.2917 73.6927 29.4401 73.5469 29.6328C73.401 29.8255 73.2865 30.0547 73.2031 30.3203C73.125 30.5807 73.0729 30.8698 73.0469 31.1875V32.4844C73.0938 32.8698 73.1849 33.2161 73.3203 33.5234C73.4557 33.8307 73.6536 34.0755 73.9141 34.2578C74.1797 34.4401 74.5234 34.5312 74.9453 34.5312C75.263 34.5312 75.5339 34.4609 75.7578 34.3203C75.9818 34.1797 76.1641 33.987 76.3047 33.7422C76.4453 33.4922 76.5469 33.2057 76.6094 32.8828C76.6719 32.5599 76.7031 32.2161 76.7031 31.8516ZM84.2812 27.5469V29.0312H79.4375V27.5469H84.2812ZM80.7344 25.4688H82.8047V33.5625C82.8047 33.8125 82.8385 34.0052 82.9062 34.1406C82.974 34.276 83.0755 34.3672 83.2109 34.4141C83.3464 34.4609 83.5078 34.4844 83.6953 34.4844C83.8307 34.4844 83.9557 34.4766 84.0703 34.4609C84.1849 34.4453 84.2812 34.4297 84.3594 34.4141L84.3672 35.9609C84.1953 36.0182 84 36.0651 83.7812 36.1016C83.5677 36.138 83.3255 36.1562 83.0547 36.1562C82.5911 36.1562 82.1849 36.0781 81.8359 35.9219C81.487 35.7604 81.2161 35.5026 81.0234 35.1484C80.8307 34.7891 80.7344 34.3151 80.7344 33.7266V25.4688ZM85.0859 31.8594V31.6953C85.0859 31.0755 85.1745 30.5052 85.3516 29.9844C85.5286 29.4583 85.7865 29.0026 86.125 28.6172C86.4635 28.2318 86.8776 27.9323 87.3672 27.7188C87.8568 27.5 88.4141 27.3906 89.0391 27.3906C89.6745 27.3906 90.237 27.5 90.7266 27.7188C91.2214 27.9323 91.638 28.2318 91.9766 28.6172C92.3151 29.0026 92.5729 29.4583 92.75 29.9844C92.9271 30.5052 93.0156 31.0755 93.0156 31.6953V31.8594C93.0156 32.474 92.9271 33.0443 92.75 33.5703C92.5729 34.0911 92.3151 34.5469 91.9766 34.9375C91.638 35.3229 91.224 35.6224 90.7344 35.8359C90.2448 36.0495 89.6849 36.1562 89.0547 36.1562C88.4297 36.1562 87.8698 36.0495 87.375 35.8359C86.8802 35.6224 86.4635 35.3229 86.125 34.9375C85.7865 34.5469 85.5286 34.0911 85.3516 33.5703C85.1745 33.0443 85.0859 32.474 85.0859 31.8594ZM87.1484 31.6953V31.8594C87.1484 32.2292 87.1849 32.5755 87.2578 32.8984C87.3307 33.2214 87.4427 33.5052 87.5938 33.75C87.7448 33.9948 87.9401 34.1875 88.1797 34.3281C88.4245 34.4635 88.7161 34.5312 89.0547 34.5312C89.388 34.5312 89.6745 34.4635 89.9141 34.3281C90.1536 34.1875 90.349 33.9948 90.5 33.75C90.6562 33.5052 90.7708 33.2214 90.8438 32.8984C90.9167 32.5755 90.9531 32.2292 90.9531 31.8594V31.6953C90.9531 31.3307 90.9167 30.9896 90.8438 30.6719C90.7708 30.349 90.6562 30.0651 90.5 29.8203C90.349 29.5703 90.151 29.375 89.9062 29.2344C89.6667 29.0885 89.3776 29.0156 89.0391 29.0156C88.7057 29.0156 88.4193 29.0885 88.1797 29.2344C87.9401 29.375 87.7448 29.5703 87.5938 29.8203C87.4427 30.0651 87.3307 30.349 87.2578 30.6719C87.1849 30.9896 87.1484 31.3307 87.1484 31.6953ZM103.031 31.8516H100.102V30.1641H103.031C103.51 30.1641 103.898 30.0859 104.195 29.9297C104.497 29.7682 104.719 29.5495 104.859 29.2734C105 28.9922 105.07 28.6719 105.07 28.3125C105.07 27.9635 105 27.638 104.859 27.3359C104.719 27.0339 104.497 26.7891 104.195 26.6016C103.898 26.4141 103.51 26.3203 103.031 26.3203H100.805V36H98.6562V24.625H103.031C103.917 24.625 104.672 24.7839 105.297 25.1016C105.927 25.4141 106.406 25.849 106.734 26.4062C107.068 26.9583 107.234 27.5885 107.234 28.2969C107.234 29.0312 107.068 29.6641 106.734 30.1953C106.406 30.7266 105.927 31.1354 105.297 31.4219C104.672 31.7083 103.917 31.8516 103.031 31.8516ZM108.289 31.8594V31.6953C108.289 31.0755 108.378 30.5052 108.555 29.9844C108.732 29.4583 108.99 29.0026 109.328 28.6172C109.667 28.2318 110.081 27.9323 110.57 27.7188C111.06 27.5 111.617 27.3906 112.242 27.3906C112.878 27.3906 113.44 27.5 113.93 27.7188C114.424 27.9323 114.841 28.2318 115.18 28.6172C115.518 29.0026 115.776 29.4583 115.953 29.9844C116.13 30.5052 116.219 31.0755 116.219 31.6953V31.8594C116.219 32.474 116.13 33.0443 115.953 33.5703C115.776 34.0911 115.518 34.5469 115.18 34.9375C114.841 35.3229 114.427 35.6224 113.938 35.8359C113.448 36.0495 112.888 36.1562 112.258 36.1562C111.633 36.1562 111.073 36.0495 110.578 35.8359C110.083 35.6224 109.667 35.3229 109.328 34.9375C108.99 34.5469 108.732 34.0911 108.555 33.5703C108.378 33.0443 108.289 32.474 108.289 31.8594ZM110.352 31.6953V31.8594C110.352 32.2292 110.388 32.5755 110.461 32.8984C110.534 33.2214 110.646 33.5052 110.797 33.75C110.948 33.9948 111.143 34.1875 111.383 34.3281C111.628 34.4635 111.919 34.5312 112.258 34.5312C112.591 34.5312 112.878 34.4635 113.117 34.3281C113.357 34.1875 113.552 33.9948 113.703 33.75C113.859 33.5052 113.974 33.2214 114.047 32.8984C114.12 32.5755 114.156 32.2292 114.156 31.8594V31.6953C114.156 31.3307 114.12 30.9896 114.047 30.6719C113.974 30.349 113.859 30.0651 113.703 29.8203C113.552 29.5703 113.354 29.375 113.109 29.2344C112.87 29.0885 112.581 29.0156 112.242 29.0156C111.909 29.0156 111.622 29.0885 111.383 29.2344C111.143 29.375 110.948 29.5703 110.797 29.8203C110.646 30.0651 110.534 30.349 110.461 30.6719C110.388 30.9896 110.352 31.3307 110.352 31.6953ZM120.07 33.9688L121.922 27.5469H123.234L122.844 29.7656L120.977 36H119.844L120.07 33.9688ZM119.047 27.5469L120.438 33.9844L120.562 36H119.258L117.039 27.5469H119.047ZM124.953 33.8906L126.312 27.5469H128.312L126.109 36H124.805L124.953 33.8906ZM123.438 27.5469L125.273 33.9062L125.516 36H124.383L122.5 29.7656L122.117 27.5469H123.438ZM133.328 36.1562C132.688 36.1562 132.112 36.0521 131.602 35.8438C131.091 35.6354 130.656 35.3464 130.297 34.9766C129.943 34.6016 129.669 34.1667 129.477 33.6719C129.289 33.1719 129.195 32.6354 129.195 32.0625V31.75C129.195 31.099 129.289 30.5078 129.477 29.9766C129.664 29.4401 129.93 28.9792 130.273 28.5938C130.617 28.2083 131.029 27.9115 131.508 27.7031C131.987 27.4948 132.516 27.3906 133.094 27.3906C133.693 27.3906 134.221 27.4922 134.68 27.6953C135.138 27.8932 135.521 28.1745 135.828 28.5391C136.135 28.9036 136.367 29.3411 136.523 29.8516C136.68 30.3568 136.758 30.9167 136.758 31.5312V32.3984H130.133V30.9766H134.727V30.8203C134.716 30.4922 134.654 30.1927 134.539 29.9219C134.424 29.6458 134.247 29.4271 134.008 29.2656C133.768 29.099 133.458 29.0156 133.078 29.0156C132.771 29.0156 132.503 29.0833 132.273 29.2188C132.049 29.349 131.862 29.5365 131.711 29.7812C131.565 30.0208 131.456 30.3073 131.383 30.6406C131.31 30.974 131.273 31.3438 131.273 31.75V32.0625C131.273 32.4167 131.32 32.7448 131.414 33.0469C131.513 33.349 131.656 33.612 131.844 33.8359C132.036 34.0547 132.266 34.2266 132.531 34.3516C132.802 34.4714 133.109 34.5312 133.453 34.5312C133.885 34.5312 134.276 34.4479 134.625 34.2812C134.979 34.1094 135.286 33.8568 135.547 33.5234L136.586 34.6016C136.409 34.862 136.169 35.112 135.867 35.3516C135.57 35.5911 135.211 35.7865 134.789 35.9375C134.367 36.0833 133.88 36.1562 133.328 36.1562ZM140.203 29.2734V36H138.141V27.5469H140.094L140.203 29.2734ZM142.773 27.4922L142.742 29.4141C142.628 29.3932 142.497 29.3776 142.352 29.3672C142.211 29.3568 142.078 29.3516 141.953 29.3516C141.635 29.3516 141.357 29.3958 141.117 29.4844C140.878 29.5677 140.677 29.6901 140.516 29.8516C140.359 30.013 140.24 30.2109 140.156 30.4453C140.073 30.6745 140.026 30.9349 140.016 31.2266L139.57 31.1719C139.57 30.6354 139.625 30.138 139.734 29.6797C139.844 29.2214 140.003 28.8203 140.211 28.4766C140.419 28.1328 140.68 27.8672 140.992 27.6797C141.31 27.487 141.674 27.3906 142.086 27.3906C142.201 27.3906 142.323 27.401 142.453 27.4219C142.589 27.4375 142.695 27.4609 142.773 27.4922Z" fill="#19342C"/>
<path d="M2.71896 7.33308C2.65529 7.24641 2.61916 7.1426 2.61525 7.03513C2.61134 6.92767 2.63982 6.8215 2.69702 6.73043C2.75421 6.63936 2.83746 6.56759 2.93596 6.52444C3.03446 6.48129 3.14366 6.46875 3.24938 6.48845L21.7158 9.49201C21.8281 9.51039 21.9318 9.56368 22.0121 9.64431C22.0924 9.72495 22.1453 9.82883 22.1632 9.94122C22.1811 10.0536 22.1632 10.1688 22.112 10.2704C22.0607 10.372 21.9788 10.4549 21.8778 10.5073L15.7914 13.6539C15.4475 13.8313 15.1573 14.0977 14.9512 14.4252C14.745 14.7528 14.6303 15.1295 14.6191 15.5164L14.4298 22.3672C14.4265 22.481 14.3874 22.5908 14.3181 22.6811C14.2488 22.7714 14.1528 22.8375 14.0438 22.8702C13.9348 22.9028 13.8183 22.9003 13.7107 22.863C13.6032 22.8257 13.5102 22.7555 13.4449 22.6623L2.71896 7.33308Z" fill="#FFDA1E" stroke="white" stroke-width="2" stroke-linecap="round" stroke-linejoin="round"/>
</svg>
