<svg width="16" height="17" viewBox="0 0 16 17" fill="none" xmlns="http://www.w3.org/2000/svg">
<path d="M11.75 2H4.25C2.47667 2 1.5 2.97667 1.5 4.75V12.25C1.5 14.0233 2.47667 15 4.25 15H11.75C13.5233 15 14.5 14.0233 14.5 12.25V4.75C14.5 2.97667 13.5233 2 11.75 2ZM13.5 12.25C13.5 13.4767 12.9767 14 11.75 14H4.25C3.02333 14 2.5 13.4767 2.5 12.25V4.75C2.5 3.52333 3.02333 3 4.25 3H11.75C12.9767 3 13.5 3.52333 13.5 4.75V12.25ZM10.3534 8.81331C10.5487 9.00865 10.5487 9.32534 10.3534 9.52067L8.35335 11.5207C8.30735 11.5667 8.25207 11.6034 8.19141 11.6287C8.13074 11.6541 8.06533 11.6673 8 11.6673C7.93467 11.6673 7.86993 11.6541 7.80859 11.6287C7.74726 11.6034 7.69265 11.5667 7.64665 11.5207L5.64665 9.52067C5.45131 9.32534 5.45131 9.00865 5.64665 8.81331C5.84198 8.61798 6.15867 8.61798 6.354 8.81331L7.50065 9.95996V5.83333C7.50065 5.55733 7.72465 5.33333 8.00065 5.33333C8.27665 5.33333 8.50065 5.55733 8.50065 5.83333V9.95931L9.6473 8.81266C9.84196 8.618 10.158 8.61798 10.3534 8.81331Z" fill="#EB4536"/>
</svg>
