<svg width="16" height="17" viewBox="0 0 16 17" fill="none" xmlns="http://www.w3.org/2000/svg">
<path d="M11.75 2H4.25C2.47667 2 1.5 2.97667 1.5 4.75V12.25C1.5 14.0233 2.47667 15 4.25 15H11.75C13.5233 15 14.5 14.0233 14.5 12.25V4.75C14.5 2.97667 13.5233 2 11.75 2ZM13.5 12.25C13.5 13.4767 12.9767 14 11.75 14H4.25C3.02333 14 2.5 13.4767 2.5 12.25V4.75C2.5 3.52333 3.02333 3 4.25 3H11.75C12.9767 3 13.5 3.52333 13.5 4.75V12.25ZM10.3534 7.47998C10.5487 7.67531 10.5487 7.992 10.3534 8.18734C10.256 8.28467 10.128 8.33398 10 8.33398C9.872 8.33398 9.74398 8.28534 9.64665 8.18734L8.5 7.04069V11.1667C8.5 11.4427 8.276 11.6667 8 11.6667C7.724 11.6667 7.5 11.4427 7.5 11.1667V7.04069L6.35335 8.18734C6.15802 8.38267 5.84133 8.38267 5.646 8.18734C5.45066 7.992 5.45066 7.67531 5.646 7.47998L7.646 5.47998C7.692 5.43398 7.74726 5.3974 7.80859 5.37207C7.93059 5.3214 8.06859 5.3214 8.19059 5.37207C8.25193 5.3974 8.30735 5.43398 8.35335 5.47998L10.3534 7.47998Z" fill="#18BB59"/>
</svg>
