<svg width="17" height="16" viewBox="0 0 17 16" fill="none" xmlns="http://www.w3.org/2000/svg">
<path d="M13.6665 3.33331V9.99998C13.6665 10.276 13.4425 10.5 13.1665 10.5C12.8905 10.5 12.6665 10.276 12.6665 9.99998V4.54067L4.85321 12.354C4.75587 12.4513 4.62785 12.5006 4.49985 12.5006C4.37185 12.5006 4.24383 12.452 4.1465 12.354C3.95117 12.1587 3.95117 11.842 4.1465 11.6466L11.9598 3.83331H6.49985C6.22385 3.83331 5.99985 3.60931 5.99985 3.33331C5.99985 3.05731 6.22385 2.83331 6.49985 2.83331H13.1665C13.2319 2.83331 13.2966 2.84672 13.3579 2.87205C13.4799 2.92272 13.5773 3.02005 13.6286 3.14272C13.6533 3.20339 13.6665 3.26798 13.6665 3.33331Z" fill="#000000"/>
</svg>
