<svg width="300" height="132" viewBox="0 0 300 132" fill="none" xmlns="http://www.w3.org/2000/svg">
<g clip-path="url(#clip0_1152_28146)">
<mask id="path-1-outside-1_1152_28146" maskUnits="userSpaceOnUse" x="0" y="0" width="300" height="133" fill="black">
<rect fill="white" width="300" height="133"/>
<path d="M0 0H300V132H0V0Z"/>
</mask>
<rect width="1" height="1" transform="translate(14 14)" fill="#3C4351"/>
<rect width="1" height="1" transform="translate(29.0547 14)" fill="#3C4351"/>
<rect width="1" height="1" transform="translate(44.1113 14)" fill="#3C4351"/>
<rect width="1" height="1" transform="translate(59.166 14)" fill="#3C4351"/>
<rect width="1" height="1" transform="translate(74.2227 14)" fill="#3C4351"/>
<rect width="1" height="1" transform="translate(89.2773 14)" fill="#3C4351"/>
<rect width="1" height="1" transform="translate(104.334 14)" fill="#3C4351"/>
<rect width="1" height="1" transform="translate(119.389 14)" fill="#3C4351"/>
<rect width="1" height="1" transform="translate(134.445 14)" fill="#3C4351"/>
<rect width="1" height="1" transform="translate(149.5 14)" fill="#3C4351"/>
<rect width="1" height="1" transform="translate(164.555 14)" fill="#3C4351"/>
<rect width="1" height="1" transform="translate(179.611 14)" fill="#3C4351"/>
<rect width="1" height="1" transform="translate(194.666 14)" fill="#3C4351"/>
<rect width="1" height="1" transform="translate(209.723 14)" fill="#3C4351"/>
<rect width="1" height="1" transform="translate(224.777 14)" fill="#3C4351"/>
<rect width="1" height="1" transform="translate(239.834 14)" fill="#3C4351"/>
<rect width="1" height="1" transform="translate(254.889 14)" fill="#3C4351"/>
<rect width="1" height="1" transform="translate(269.945 14)" fill="#3C4351"/>
<rect width="1" height="1" transform="translate(285 14)" fill="#3C4351"/>
<rect width="1" height="1" transform="translate(14 31.1667)" fill="#3C4351"/>
<rect width="1" height="1" transform="translate(29.0547 31.1667)" fill="#3C4351"/>
<rect width="1" height="1" transform="translate(44.1113 31.1667)" fill="#3C4351"/>
<rect width="1" height="1" transform="translate(59.166 31.1667)" fill="#3C4351"/>
<rect width="1" height="1" transform="translate(74.2227 31.1667)" fill="#3C4351"/>
<rect width="1" height="1" transform="translate(89.2773 31.1667)" fill="#3C4351"/>
<rect width="1" height="1" transform="translate(104.334 31.1667)" fill="#3C4351"/>
<rect width="1" height="1" transform="translate(119.389 31.1667)" fill="#3C4351"/>
<rect width="1" height="1" transform="translate(134.445 31.1667)" fill="#3C4351"/>
<rect width="1" height="1" transform="translate(149.5 31.1667)" fill="#3C4351"/>
<rect width="1" height="1" transform="translate(164.555 31.1667)" fill="#3C4351"/>
<rect width="1" height="1" transform="translate(179.611 31.1667)" fill="#3C4351"/>
<rect width="1" height="1" transform="translate(194.666 31.1667)" fill="#3C4351"/>
<rect width="1" height="1" transform="translate(209.723 31.1667)" fill="#3C4351"/>
<rect width="1" height="1" transform="translate(224.777 31.1667)" fill="#3C4351"/>
<rect width="1" height="1" transform="translate(239.834 31.1667)" fill="#3C4351"/>
<rect width="1" height="1" transform="translate(254.889 31.1667)" fill="#3C4351"/>
<rect width="1" height="1" transform="translate(269.945 31.1667)" fill="#3C4351"/>
<rect width="1" height="1" transform="translate(285 31.1667)" fill="#3C4351"/>
<rect width="1" height="1" transform="translate(14 48.3333)" fill="#3C4351"/>
<rect width="1" height="1" transform="translate(29.0547 48.3333)" fill="#3C4351"/>
<rect width="1" height="1" transform="translate(44.1113 48.3333)" fill="#3C4351"/>
<rect width="1" height="1" transform="translate(59.166 48.3333)" fill="#3C4351"/>
<rect width="1" height="1" transform="translate(74.2227 48.3333)" fill="#3C4351"/>
<rect width="1" height="1" transform="translate(89.2773 48.3333)" fill="#3C4351"/>
<rect width="1" height="1" transform="translate(104.334 48.3333)" fill="#3C4351"/>
<rect width="1" height="1" transform="translate(119.389 48.3333)" fill="#3C4351"/>
<rect width="1" height="1" transform="translate(134.445 48.3333)" fill="#3C4351"/>
<rect width="1" height="1" transform="translate(149.5 48.3333)" fill="#3C4351"/>
<rect width="1" height="1" transform="translate(164.555 48.3333)" fill="#3C4351"/>
<rect width="1" height="1" transform="translate(179.611 48.3333)" fill="#3C4351"/>
<rect width="1" height="1" transform="translate(194.666 48.3333)" fill="#3C4351"/>
<rect width="1" height="1" transform="translate(209.723 48.3333)" fill="#3C4351"/>
<rect width="1" height="1" transform="translate(224.777 48.3333)" fill="#3C4351"/>
<rect width="1" height="1" transform="translate(239.834 48.3333)" fill="#3C4351"/>
<rect width="1" height="1" transform="translate(254.889 48.3333)" fill="#3C4351"/>
<rect width="1" height="1" transform="translate(269.945 48.3333)" fill="#3C4351"/>
<rect width="1" height="1" transform="translate(285 48.3333)" fill="#3C4351"/>
<rect width="1" height="1" transform="translate(14 65.5)" fill="#3C4351"/>
<rect width="1" height="1" transform="translate(29.0547 65.5)" fill="#3C4351"/>
<rect width="1" height="1" transform="translate(44.1113 65.5)" fill="#3C4351"/>
<rect width="1" height="1" transform="translate(59.166 65.5)" fill="#3C4351"/>
<rect width="1" height="1" transform="translate(74.2227 65.5)" fill="#3C4351"/>
<rect width="1" height="1" transform="translate(89.2773 65.5)" fill="#3C4351"/>
<rect width="1" height="1" transform="translate(104.334 65.5)" fill="#3C4351"/>
<rect width="1" height="1" transform="translate(119.389 65.5)" fill="#3C4351"/>
<rect width="1" height="1" transform="translate(134.445 65.5)" fill="#3C4351"/>
<rect width="1" height="1" transform="translate(149.5 65.5)" fill="#3C4351"/>
<rect width="1" height="1" transform="translate(164.555 65.5)" fill="#3C4351"/>
<rect width="1" height="1" transform="translate(179.611 65.5)" fill="#3C4351"/>
<rect width="1" height="1" transform="translate(194.666 65.5)" fill="#3C4351"/>
<rect width="1" height="1" transform="translate(209.723 65.5)" fill="#3C4351"/>
<rect width="1" height="1" transform="translate(224.777 65.5)" fill="#3C4351"/>
<rect width="1" height="1" transform="translate(239.834 65.5)" fill="#3C4351"/>
<rect width="1" height="1" transform="translate(254.889 65.5)" fill="#3C4351"/>
<rect width="1" height="1" transform="translate(269.945 65.5)" fill="#3C4351"/>
<rect width="1" height="1" transform="translate(285 65.5)" fill="#3C4351"/>
<rect width="1" height="1" transform="translate(14 82.6667)" fill="#3C4351"/>
<rect width="1" height="1" transform="translate(29.0547 82.6667)" fill="#3C4351"/>
<rect width="1" height="1" transform="translate(44.1113 82.6667)" fill="#3C4351"/>
<rect width="1" height="1" transform="translate(59.166 82.6667)" fill="#3C4351"/>
<rect width="1" height="1" transform="translate(74.2227 82.6667)" fill="#3C4351"/>
<rect width="1" height="1" transform="translate(89.2773 82.6667)" fill="#3C4351"/>
<rect width="1" height="1" transform="translate(104.334 82.6667)" fill="#3C4351"/>
<rect width="1" height="1" transform="translate(119.389 82.6667)" fill="#3C4351"/>
<rect width="1" height="1" transform="translate(134.445 82.6667)" fill="#3C4351"/>
<rect width="1" height="1" transform="translate(149.5 82.6667)" fill="#3C4351"/>
<rect width="1" height="1" transform="translate(164.555 82.6667)" fill="#3C4351"/>
<rect width="1" height="1" transform="translate(179.611 82.6667)" fill="#3C4351"/>
<rect width="1" height="1" transform="translate(194.666 82.6667)" fill="#3C4351"/>
<rect width="1" height="1" transform="translate(209.723 82.6667)" fill="#3C4351"/>
<rect width="1" height="1" transform="translate(224.777 82.6667)" fill="#3C4351"/>
<rect width="1" height="1" transform="translate(239.834 82.6667)" fill="#3C4351"/>
<rect width="1" height="1" transform="translate(254.889 82.6667)" fill="#3C4351"/>
<rect width="1" height="1" transform="translate(269.945 82.6667)" fill="#3C4351"/>
<rect width="1" height="1" transform="translate(285 82.6667)" fill="#3C4351"/>
<rect width="1" height="1" transform="translate(14 99.8333)" fill="#3C4351"/>
<rect width="1" height="1" transform="translate(29.0547 99.8333)" fill="#3C4351"/>
<rect width="1" height="1" transform="translate(44.1113 99.8333)" fill="#3C4351"/>
<rect width="1" height="1" transform="translate(59.166 99.8333)" fill="#3C4351"/>
<rect width="1" height="1" transform="translate(74.2227 99.8333)" fill="#3C4351"/>
<rect width="1" height="1" transform="translate(89.2773 99.8333)" fill="#3C4351"/>
<rect width="1" height="1" transform="translate(104.334 99.8333)" fill="#3C4351"/>
<rect width="1" height="1" transform="translate(119.389 99.8333)" fill="#3C4351"/>
<rect width="1" height="1" transform="translate(134.445 99.8333)" fill="#3C4351"/>
<rect width="1" height="1" transform="translate(149.5 99.8333)" fill="#3C4351"/>
<rect width="1" height="1" transform="translate(164.555 99.8333)" fill="#3C4351"/>
<rect width="1" height="1" transform="translate(179.611 99.8333)" fill="#3C4351"/>
<rect width="1" height="1" transform="translate(194.666 99.8333)" fill="#3C4351"/>
<rect width="1" height="1" transform="translate(209.723 99.8333)" fill="#3C4351"/>
<rect width="1" height="1" transform="translate(224.777 99.8333)" fill="#3C4351"/>
<rect width="1" height="1" transform="translate(239.834 99.8333)" fill="#3C4351"/>
<rect width="1" height="1" transform="translate(254.889 99.8333)" fill="#3C4351"/>
<rect width="1" height="1" transform="translate(269.945 99.8333)" fill="#3C4351"/>
<rect width="1" height="1" transform="translate(285 99.8333)" fill="#3C4351"/>
<rect width="1" height="1" transform="translate(14 117)" fill="#3C4351"/>
<rect width="1" height="1" transform="translate(29.0547 117)" fill="#3C4351"/>
<rect width="1" height="1" transform="translate(44.1113 117)" fill="#3C4351"/>
<rect width="1" height="1" transform="translate(59.166 117)" fill="#3C4351"/>
<rect width="1" height="1" transform="translate(74.2227 117)" fill="#3C4351"/>
<rect width="1" height="1" transform="translate(89.2773 117)" fill="#3C4351"/>
<rect width="1" height="1" transform="translate(104.334 117)" fill="#3C4351"/>
<rect width="1" height="1" transform="translate(119.389 117)" fill="#3C4351"/>
<rect width="1" height="1" transform="translate(134.445 117)" fill="#3C4351"/>
<rect width="1" height="1" transform="translate(149.5 117)" fill="#3C4351"/>
<rect width="1" height="1" transform="translate(164.555 117)" fill="#3C4351"/>
<rect width="1" height="1" transform="translate(179.611 117)" fill="#3C4351"/>
<rect width="1" height="1" transform="translate(194.666 117)" fill="#3C4351"/>
<rect width="1" height="1" transform="translate(209.723 117)" fill="#3C4351"/>
<rect width="1" height="1" transform="translate(224.777 117)" fill="#3C4351"/>
<rect width="1" height="1" transform="translate(239.834 117)" fill="#3C4351"/>
<rect width="1" height="1" transform="translate(254.889 117)" fill="#3C4351"/>
<rect width="1" height="1" transform="translate(269.945 117)" fill="#3C4351"/>
<rect width="1" height="1" transform="translate(285 117)" fill="#3C4351"/>
</g>
<path d="M300 131H0V133H300V131Z" fill="#0E1626" mask="url(#path-1-outside-1_1152_28146)"/>
<defs>
<clipPath id="clip0_1152_28146">
<path d="M0 0H300V132H0V0Z" fill="white"/>
</clipPath>
</defs>
</svg>
