<svg width="35" height="35" viewBox="0 0 35 35" fill="none" xmlns="http://www.w3.org/2000/svg">
    <path fill-rule="evenodd" clip-rule="evenodd" d="M17.4 2.89941C9.396 2.89941 2.9 9.39541 2.9 17.3994C2.9 25.4034 9.396 31.8994 17.4 31.8994C25.404 31.8994 31.9 25.4034 31.9 17.3994C31.9 9.39541 25.404 2.89941 17.4 2.89941ZM17.4 28.9994C11.0055 28.9994 5.8 23.7939 5.8 17.3994C5.8 11.0049 11.0055 5.79941 17.4 5.79941C23.7945 5.79941 29 11.0049 29 17.3994C29 23.7939 23.7945 28.9994 17.4 28.9994ZM14.5 20.546L24.0555 10.9905L26.1 13.0495L14.5 24.6495L8.7 18.8495L10.7445 16.805L14.5 20.546Z" fill="#017E35"></path>
</svg>