<svg width="32" height="32" viewBox="0 0 135 151" fill="none" xmlns="http://www.w3.org/2000/svg">
<path fill-rule="evenodd" clip-rule="evenodd" d="M3.19064 23.9061C0.375 27.9177 0.375 39.8421 0.375 63.6907V75.4354C0.375 117.486 31.9906 137.892 51.8268 146.557C57.2076 148.908 59.898 150.083 67.5 150.083C75.102 150.083 77.7924 148.908 83.1732 146.557C103.009 137.892 134.625 117.486 134.625 75.4354V63.6907C134.625 39.8421 134.625 27.9177 131.809 23.9061C128.994 19.8945 117.782 16.0566 95.3576 8.38075L91.0853 6.91835C79.3962 2.91712 73.5516 0.916504 67.5 0.916504C61.4484 0.916504 55.6038 2.91712 43.9147 6.91835L39.6425 8.38075C17.2183 16.0566 6.00628 19.8945 3.19064 23.9061ZM90.3184 64.3087C92.376 62.0042 92.1758 58.4681 89.8714 56.4106C87.5669 54.353 84.0308 54.5532 81.9733 56.8576L59.5089 82.0177L53.0268 74.7576C50.9692 72.4532 47.4331 72.253 45.1286 74.3106C42.8242 76.3681 42.624 79.9042 44.6816 82.2087L55.3363 94.142C56.3976 95.3307 57.9155 96.0103 59.5089 96.0103C61.1024 96.0103 62.6202 95.3307 63.6815 94.142L90.3184 64.3087Z" fill="#0094FF"/>
</svg>
