<svg width="41" height="41" viewBox="0 0 41 41" fill="none" xmlns="http://www.w3.org/2000/svg">
    <path fill-rule="evenodd" clip-rule="evenodd" d="M16.9268 6.35262C18.4942 3.56605 22.5062 3.56605 24.0737 6.35262L35.5133 26.6897C37.0507 29.4228 35.0756 32.7998 31.9398 32.7998H9.0606C5.92481 32.7998 3.94978 29.4228 5.48714 26.6897L16.9268 6.35262ZM22.55 26.65C22.55 27.7822 21.6322 28.7 20.5 28.7C19.3679 28.7 18.45 27.7822 18.45 26.65C18.45 25.5178 19.3679 24.6 20.5 24.6C21.6322 24.6 22.55 25.5178 22.55 26.65ZM20.5 10.25C19.3679 10.25 18.45 11.1679 18.45 12.3V18.45C18.45 19.5822 19.3679 20.5 20.5 20.5C21.6322 20.5 22.55 19.5822 22.55 18.45V12.3C22.55 11.1679 21.6322 10.25 20.5 10.25Z" fill="#FF9432"></path>
</svg>