<svg width="108" height="108" viewBox="0 0 108 108" fill="none" xmlns="http://www.w3.org/2000/svg">
<g id="coinmarketcap">
<path id="Vector" d="M100.736 54.0198V53.8357C100.644 27.7888 79.6627 6.53174 53.984 6.53174C28.3052 6.53174 7.2323 27.7888 7.2323 54.0198C7.2323 80.2542 28.2099 101.468 53.984 101.468C65.8109 101.477 77.1855 96.9243 85.7413 88.759C86.584 87.9891 87.0864 86.916 87.1379 85.7757C87.1893 84.6354 86.7857 83.5214 86.0158 82.6787C85.246 81.836 84.1728 81.3337 83.0326 81.2822C81.8923 81.2307 80.7783 81.6343 79.9356 82.4042L79.8435 82.4962C76.1519 86.0057 71.7892 88.733 67.0173 90.5144C62.2454 92.2958 57.1627 93.0946 52.0744 92.8628C46.9861 92.631 41.9971 91.3733 37.407 89.1654C32.8168 86.9575 28.7202 83.8448 25.3629 80.0142L45.3345 47.9872V62.8073C45.3345 69.8886 48.0961 72.1932 50.417 72.8375C52.738 73.4819 56.2195 73.0151 59.9903 67.0351L70.9475 49.2431C71.2401 48.7236 71.5787 48.2305 71.9535 47.767V56.7912C71.9535 63.4155 74.623 68.7544 79.2222 71.3286C81.3453 72.4846 83.7419 73.044 86.1574 72.9473C88.5729 72.8506 90.9171 72.1015 92.941 70.7796C98.2536 67.331 101.107 61.2918 100.736 54.0198ZM88.585 63.3399C87.8473 63.8482 86.9871 64.15 86.0935 64.2141C85.1999 64.2783 84.3054 64.1025 83.5025 63.7048C81.6615 62.6035 80.5536 60.1215 80.5536 56.7156V46.2843C80.5536 41.3202 78.6206 37.7269 75.3101 36.813C69.6917 35.1166 65.464 42.0566 63.8958 44.634L53.984 60.5521V40.952C53.8919 36.4448 52.4158 33.7753 49.6543 32.9436C47.8133 32.3946 45.0518 32.674 42.3857 36.7242L20.2048 72.2458C17.254 66.6231 15.7076 60.3698 15.6976 54.0198C15.6976 32.5754 32.9045 15.1812 53.984 15.1812C75.0635 15.1812 92.2703 32.5754 92.2703 54.0198V54.2072C92.4906 58.3429 91.1624 61.6633 88.5883 63.3136L88.585 63.3399Z" fill="#FFFFFF"/>
</g>
</svg>
