<?xml version="1.0" encoding="UTF-8"?>
<svg width="19px" height="19px" viewBox="0 0 19 19" version="1.1" xmlns="http://www.w3.org/2000/svg" xmlns:xlink="http://www.w3.org/1999/xlink">
    <title>gy3</title>
    <g id="1-首页" stroke="none" stroke-width="1" fill="none" fill-rule="evenodd">
        <g id="WEB_demo1白" transform="translate(-1326.000000, -5463.000000)">
            <g id="10底部" transform="translate(-479.000000, 5347.000000)">
                <g id="关注" transform="translate(1690.361836, 56.000000)">
                    <g id="gy3" transform="translate(115.386475, 60.248047)">
                        <rect id="矩形备份-28" x="0" y="0" width="18" height="18"></rect>
                        <g id="编组" transform="translate(0.000000, 2.883929)" fill="#FFFFFF" fill-rule="nonzero">
                            <path d="M17.6243304,1.97075893 C17.4174107,1.1953125 16.8066964,0.584598214 16.0332589,0.377678571 C14.6290179,0 9,0 9,0 C9,0 3.37098214,0 1.96674107,0.375669643 C1.19129464,0.582589286 0.582589286,1.19330357 0.375669643,1.96875 C0,3.375 0,6.30803571 0,6.30803571 C0,6.30803571 0,9.24107143 0.375669643,10.6453125 C0.582589286,11.4207589 1.19330357,12.0314732 1.96674107,12.2383929 C3.37098214,12.6160714 9,12.6160714 9,12.6160714 C9,12.6160714 14.6290179,12.6160714 16.0332589,12.2383929 C16.8087054,12.0314732 17.4174107,11.4207589 17.6243304,10.6453125 C18,9.24107143 18,6.30803571 18,6.30803571 C18,6.30803571 18,3.375 17.6243304,1.97075893 Z M7.21205357,9 L7.21205357,3.61607143 L11.8727679,6.28794643 L7.21205357,9 Z" id="形状"></path>
                        </g>
                    </g>
                </g>
            </g>
        </g>
    </g>
</svg>