<?xml version="1.0" encoding="UTF-8"?>
<svg width="19px" height="19px" viewBox="0 0 19 19" version="1.1" xmlns="http://www.w3.org/2000/svg" xmlns:xlink="http://www.w3.org/1999/xlink">
    <title>gy4</title>
    <g id="1-首页" stroke="none" stroke-width="1" fill="none" fill-rule="evenodd">
        <g id="WEB_demo1白" transform="translate(-1379.000000, -5463.000000)">
            <g id="10底部" transform="translate(-479.000000, 5347.000000)">
                <g id="关注" transform="translate(1690.361836, 56.000000)">
                    <g id="gy4" transform="translate(168.625000, 60.248047)">
                        <rect id="矩形备份-6" opacity="0.171293713" x="0" y="0" width="18" height="18"></rect>
                        <path d="M13,0.129635862 C12.7182578,0.0866258329 11.7499514,0 10.6247326,0 C8.27046471,0 6.65642621,1.49262974 6.65642621,4.22952144 L6.65642621,6.58780373 L4,6.58780373 L4,9.78993067 L6.65642621,9.78993067 L6.65642621,18 L9.84367101,18 L9.84367101,9.78993067 L12.4895975,9.78993067 L12.8955862,6.58780373 L9.84367101,6.58780373 L9.84367101,4.54331292 C9.84367101,3.62374638 10.0834143,2.98586525 11.3643788,2.98586525 L13,2.98586525 L13,0.129635862 Z" id="路径" fill="#FFFFFF" fill-rule="nonzero"></path>
                    </g>
                </g>
            </g>
        </g>
    </g>
</svg>