<?xml version="1.0" encoding="UTF-8"?>
<svg width="19px" height="19px" viewBox="0 0 19 19" version="1.1" xmlns="http://www.w3.org/2000/svg" xmlns:xlink="http://www.w3.org/1999/xlink">
    <title>gy6</title>
    <g id="1-首页" stroke="none" stroke-width="1" fill="none" fill-rule="evenodd">
        <g id="WEB_demo1白" transform="translate(-1272.000000, -5503.000000)">
            <g id="10底部" transform="translate(-479.000000, 5347.000000)">
                <g id="关注" transform="translate(1690.361836, 56.000000)">
                    <g id="gy6" transform="translate(60.875000, 100.013414)">
                        <rect id="矩形" opacity="0.171293713" x="0" y="0" width="18" height="18"></rect>
                        <path d="M5.14654922,5.72439798 L5.14654922,15.8198119 L2.03575305,15.8198119 L2.03575305,5.72439798 L5.14654922,5.72439798 Z M13.1876638,5.43092665 C16.3571543,5.43092665 16.9440969,7.54392027 16.9440969,10.2438566 L16.9440969,15.7611177 L13.8333008,15.7611177 L13.8333008,10.8307992 C13.8333008,9.65691389 13.8333008,8.13086295 12.1898613,8.13086293 C10.5464218,8.13086291 10.3116447,9.42213681 10.3116447,10.7134107 L10.3116447,15.7024234 L7.20084856,15.7024234 L7.20084856,5.72439798 L10.1355619,5.72439798 L10.1355619,7.07436612 L10.1942562,7.07436612 C10.6051161,6.25264638 11.6616129,5.43092665 13.1876638,5.43092665 Z M3.62049827,0.735385259 C4.61830082,0.735385259 5.44002055,1.557105 5.44002055,2.55490755 C5.44002055,3.5527101 4.61830082,4.37442984 3.62049827,4.37442984 C2.62269571,4.37442984 1.80097598,3.5527101 1.80097598,2.55490755 C1.80097598,1.557105 2.62269571,0.735385259 3.62049827,0.735385259 Z" id="形状结合" fill="#FFFFFF"></path>
                    </g>
                </g>
            </g>
        </g>
    </g>
</svg>