<?xml version="1.0" encoding="UTF-8"?>
<svg width="19px" height="19px" viewBox="0 0 19 19" version="1.1" xmlns="http://www.w3.org/2000/svg" xmlns:xlink="http://www.w3.org/1999/xlink">
    <title>gy8</title>
    <g id="1-首页" stroke="none" stroke-width="1" fill="none" fill-rule="evenodd">
        <g id="WEB_demo1白" transform="translate(-1379.000000, -5503.000000)">
            <g id="10底部" transform="translate(-479.000000, 5347.000000)">
                <g id="关注" transform="translate(1690.361836, 56.000000)">
                    <g id="gy8" transform="translate(168.625000, 100.013414)">
                        <rect id="矩形备份-28" x="0" y="0" width="18" height="18"></rect>
                        <g id="编组" transform="translate(1.386823, 0.299226)" fill="#FFFFFF">
                            <path d="M13.4318202,0 C14.4378472,0 15.2263549,0.788507664 15.2263549,1.79453468 L15.2263549,1.79453468 L15.2263549,17.4015484 L13.3774404,15.7701533 L12.3170335,14.7913162 L11.2022468,13.7580992 L11.6644754,15.3623045 L1.79453468,15.3623045 C0.788507664,15.3623045 0,14.5466069 0,13.5677698 L0,13.5677698 L0,1.79453468 C0,0.788507664 0.788507664,0 1.79453468,0 L1.79453468,0 Z M6.30806131,4.051298 L6.28167366,4.05134269 C6.09958813,4.05397073 5.00294518,4.10686001 3.86096856,4.97575526 C3.86096856,4.97575526 2.61023227,7.25970849 2.61023227,10.0602702 C2.61023227,10.0602702 3.34436009,11.3381964 5.27484437,11.3925762 C5.27484437,11.3925762 5.57393349,10.9847275 5.84583268,10.6584484 C4.73104598,10.3321694 4.32319719,9.62523148 4.32319719,9.62523148 C4.32319719,9.62523148 4.40476695,9.67961132 4.56790647,9.76118108 C4.56790647,9.76118108 4.56790647,9.788371 4.59509639,9.788371 C4.62228631,9.81556092 4.64947622,9.81556092 4.67666614,9.84275084 C4.8941855,9.97870044 5.11170486,10.0602702 5.30203429,10.14184 C5.65550324,10.2777895 6.09054196,10.4137391 6.57996051,10.5224988 C7.23251857,10.6312585 7.99383632,10.6856383 8.83672382,10.5224988 C9.24457261,10.4409291 9.6524214,10.3321694 10.0874601,10.14184 C10.3865492,10.0330803 10.7400182,9.86994076 11.0934871,9.62523148 C11.0934871,9.62523148 10.6584484,10.3321694 9.5164718,10.6584484 C9.76118108,10.9847275 10.0874601,11.3653863 10.0874601,11.3653863 C12.0179444,11.3110065 12.7520722,10.0330803 12.7248823,10.0602702 C12.7248823,7.71141199 11.845072,5.72595371 11.5612622,5.14658783 L11.5070192,5.03832283 C11.4858595,4.99714504 11.474146,4.97575526 11.474146,4.97575526 C10.3321694,4.10686001 9.23552644,4.05397073 9.05344091,4.05134269 L9.02705325,4.051298 L8.91829358,4.18724759 C10.4137391,4.64947622 11.0934871,5.30203429 11.0934871,5.30203429 C10.1962198,4.78542582 9.29895245,4.56790647 8.48325487,4.45914679 C7.85788672,4.40476695 7.25970849,4.40476695 6.7159101,4.48633671 C6.68872018,4.48633671 6.63434034,4.51352663 6.57996051,4.51352663 C6.25368147,4.54071655 5.51955365,4.64947622 4.59509639,5.05732502 C4.26881735,5.19327461 4.07848792,5.30203429 4.07848792,5.30203429 C4.07848792,5.30203429 4.81261574,4.62228631 6.38963107,4.16005767 L6.38963107,4.16005767 L6.30806131,4.051298 L6.30806131,4.051298 Z M9.21738269,7.28689841 C9.70680124,7.28689841 10.11465,7.72193712 10.11465,8.26573551 C10.11465,8.8095339 9.70680124,9.24457261 9.21738269,9.24457261 C8.72796414,9.24457261 8.32011535,8.8095339 8.32011535,8.26573551 C8.32011535,7.72193712 8.72796414,7.28689841 9.21738269,7.28689841 Z M6.03616212,7.28689841 C6.52558067,7.28689841 6.93342946,7.72193712 6.93342946,8.26573551 C6.93342946,8.8095339 6.52558067,9.24457261 6.03616212,9.24457261 C5.54674357,9.24457261 5.13889477,8.8095339 5.13889477,8.26573551 C5.13889477,7.72193712 5.54674357,7.28689841 6.03616212,7.28689841 Z" id="形状结合"></path>
                        </g>
                    </g>
                </g>
            </g>
        </g>
    </g>
</svg>