<svg width="36" height="36" viewBox="0 0 36 36" fill="none" xmlns="http://www.w3.org/2000/svg">
<path fill-rule="evenodd" clip-rule="evenodd" d="M9.41368 3.41967C9.84909 2.88394 10.6364 2.80261 11.1721 3.23802L15.6206 6.85349C16.1563 7.2889 16.2377 8.07617 15.8022 8.6119C15.3668 9.14763 14.5796 9.22896 14.0438 8.79355L9.59533 5.17808C9.05959 4.74267 8.97827 3.9554 9.41368 3.41967Z" fill="#ebebeb"/>
<path fill-rule="evenodd" clip-rule="evenodd" d="M26.5925 3.42748C26.1614 2.88827 25.3748 2.80063 24.8356 3.23173L20.3134 6.8472C19.7742 7.2783 19.6866 8.06489 20.1177 8.6041C20.5488 9.14331 21.3354 9.23095 21.8746 8.79985L26.3967 5.18438C26.9359 4.75328 27.0236 3.96669 26.5925 3.42748Z" fill="#ebebeb"/>
<path fill-rule="evenodd" clip-rule="evenodd" d="M14.9308 13.9263C15.3199 13.7036 15.7985 13.7064 16.185 13.9336L23.9885 18.5196C24.3602 18.7381 24.5931 19.1327 24.6047 19.5637C24.6163 19.9948 24.4049 20.4013 24.0454 20.6394L16.2419 25.8078C15.8581 26.062 15.3657 26.0847 14.9601 25.8668C14.5546 25.649 14.3016 25.226 14.3016 24.7656V15.0112C14.3016 14.5629 14.5417 14.1489 14.9308 13.9263ZM16.8016 17.1957V22.4385L20.9958 19.6606L16.8016 17.1957Z" fill="#FE7701"/>
<path fill-rule="evenodd" clip-rule="evenodd" d="M34.7235 10.4856C34.7235 8.41453 33.0446 6.7356 30.9735 6.7356H5.02635C2.95529 6.7356 1.27636 8.41453 1.27636 10.4856V29.2913C1.27636 31.3624 2.95529 33.0413 5.02635 33.0413H30.9735C33.0446 33.0413 34.7235 31.3624 34.7235 29.2913V10.4856ZM30.9735 9.2356C31.6639 9.2356 32.2235 9.79524 32.2235 10.4856V29.2913C32.2235 29.9817 31.6639 30.5413 30.9735 30.5413H5.02635C4.336 30.5413 3.77635 29.9817 3.77635 29.2913V10.4856C3.77635 9.79524 4.336 9.2356 5.02635 9.2356H30.9735Z" fill="#ebebeb"/>
</svg>
