<svg width="36" height="36" viewBox="0 0 36 36" fill="none" xmlns="http://www.w3.org/2000/svg">
<path fill-rule="evenodd" clip-rule="evenodd" d="M21.5866 4.1499L7.30005 4.1499C6.60969 4.1499 6.05005 4.70955 6.05005 5.3999V30.5999C6.05005 31.2903 6.60969 31.8499 7.30005 31.8499L28.7001 31.8499C29.3904 31.8499 29.9501 31.2903 29.9501 30.5999V12.2838H22.8366C22.1463 12.2838 21.5866 11.7242 21.5866 11.0338V4.1499ZM24.0866 5.86324L25.9995 7.7272L28.118 9.78382H24.0866V5.86324ZM7.30005 1.6499L22.8366 1.6499C23.1626 1.6499 23.4756 1.77719 23.709 2.00464L27.7426 5.93507L32.0708 10.137C32.3132 10.3723 32.4501 10.6959 32.4501 11.0338V30.5999C32.4501 32.671 30.7711 34.3499 28.7001 34.3499L7.30005 34.3499C5.22898 34.3499 3.55005 32.671 3.55005 30.5999V5.3999C3.55005 3.32884 5.22898 1.6499 7.30005 1.6499Z" fill="#ebebeb"/>
<path fill-rule="evenodd" clip-rule="evenodd" d="M11.1667 19.2661C11.1667 18.5758 11.7264 18.0161 12.4167 18.0161H23.0769C23.7673 18.0161 24.3269 18.5758 24.3269 19.2661C24.3269 19.9565 23.7673 20.5161 23.0769 20.5161H12.4167C11.7264 20.5161 11.1667 19.9565 11.1667 19.2661Z" fill="#FE7701"/>
<path fill-rule="evenodd" clip-rule="evenodd" d="M11.2993 25.2354C11.2993 24.545 11.859 23.9854 12.5493 23.9854H23.3493C24.0397 23.9854 24.5993 24.545 24.5993 25.2354C24.5993 25.9257 24.0397 26.4854 23.3493 26.4854H12.5493C11.859 26.4854 11.2993 25.9257 11.2993 25.2354Z" fill="#ebebeb"/>
</svg>
