<svg width="36" height="36" viewBox="0 0 36 36" fill="none" xmlns="http://www.w3.org/2000/svg">
<path fill-rule="evenodd" clip-rule="evenodd" d="M0.596069 10.4012C0.596069 9.04807 1.69297 7.95117 3.04607 7.95117H32.954C34.3071 7.95117 35.404 9.04807 35.404 10.4012V14.7435C35.404 16.0966 34.3071 17.1935 32.954 17.1935H3.04607C1.69298 17.1935 0.596069 16.0966 0.596069 14.7435V10.4012ZM3.09607 10.4512V14.6935H32.904V10.4512H3.09607Z" fill="#ebebeb"/>
<path fill-rule="evenodd" clip-rule="evenodd" d="M3.55005 16.1851C3.55005 15.4947 4.10969 14.9351 4.80005 14.9351H31.2001C31.8904 14.9351 32.4501 15.4947 32.4501 16.1851V30.5808C32.4501 32.6519 30.7711 34.3308 28.7001 34.3308H7.30005C5.22898 34.3308 3.55005 32.6519 3.55005 30.5808V16.1851ZM6.05005 17.4351V30.5808C6.05005 31.2712 6.60969 31.8308 7.30005 31.8308H28.7001C29.3904 31.8308 29.9501 31.2712 29.9501 30.5808V17.4351H6.05005Z" fill="#ebebeb"/>
<path fill-rule="evenodd" clip-rule="evenodd" d="M13.0387 4.72717L15.2425 7.85156H9.14744L13.0387 4.72717ZM14.7198 2.7731C14.0848 1.87291 12.8221 1.69498 11.9631 2.38466L4.81147 8.12687C4.39785 8.45897 4.23888 9.01598 4.4149 9.51637C4.59093 10.0168 5.06362 10.3516 5.59407 10.3516H17.6538C18.1207 10.3516 18.5487 10.0914 18.7636 9.67685C18.9784 9.26233 18.9444 8.76262 18.6753 8.38108L14.7198 2.7731Z" fill="#ebebeb"/>
<path fill-rule="evenodd" clip-rule="evenodd" d="M23.248 4.72717L21.0443 7.85156H27.1393L23.248 4.72717ZM21.567 2.7731C22.2019 1.87291 23.4646 1.69498 24.3236 2.38466L31.4753 8.12687C31.8889 8.45897 32.0479 9.01598 31.8718 9.51637C31.6958 10.0168 31.2231 10.3516 30.6927 10.3516H18.6329C18.166 10.3516 17.7381 10.0914 17.5232 9.67685C17.3083 9.26233 17.3424 8.76262 17.6115 8.38108L21.567 2.7731Z" fill="#ebebeb"/>
<path fill-rule="evenodd" clip-rule="evenodd" d="M18.0531 19.273C18.7434 19.2773 19.2996 19.8404 19.2953 20.5307L19.2488 28.0375C19.2445 28.7278 18.6814 29.284 17.991 29.2797C17.3007 29.2754 16.7445 28.7123 16.7488 28.022L16.7954 20.5152C16.7996 19.8249 17.3627 19.2687 18.0531 19.273Z" fill="#FE7701"/>
</svg>
