<svg width="36" height="36" viewBox="0 0 36 36" fill="none" xmlns="http://www.w3.org/2000/svg">
<path fill-rule="evenodd" clip-rule="evenodd" d="M15.5698 5.79395C12.8655 5.79395 10.6732 7.98623 10.6732 10.6906C10.6732 13.3949 12.8655 15.5872 15.5698 15.5872C18.2741 15.5872 20.4664 13.3949 20.4664 10.6906C20.4664 7.98623 18.2741 5.79395 15.5698 5.79395ZM8.17322 10.6906C8.17322 6.60552 11.4848 3.29395 15.5698 3.29395C19.6549 3.29395 22.9664 6.60552 22.9664 10.6906C22.9664 14.7756 19.6549 18.0872 15.5698 18.0872C11.4848 18.0872 8.17322 14.7756 8.17322 10.6906Z" fill="#ebebeb"/>
<path fill-rule="evenodd" clip-rule="evenodd" d="M15.5698 18.6475C8.49603 18.6475 2.7616 24.3819 2.7616 31.4557C2.7616 32.146 2.20195 32.7057 1.5116 32.7057C0.821241 32.7057 0.261597 32.146 0.261597 31.4557C0.261597 23.0012 7.11532 16.1475 15.5698 16.1475C24.0243 16.1475 30.878 23.0012 30.878 31.4557C30.878 32.146 30.3184 32.7057 29.628 32.7057C28.9377 32.7057 28.378 32.146 28.378 31.4557C28.378 24.3819 22.6436 18.6475 15.5698 18.6475Z" fill="#ebebeb"/>
<path fill-rule="evenodd" clip-rule="evenodd" d="M13.9506 22.1008C14.8293 21.2221 16.2539 21.2221 17.1326 22.1008L19.6437 24.6118C20.5224 25.4905 20.5224 26.9151 19.6437 27.7938L17.189 30.2485C16.3104 31.1272 14.8857 31.1272 14.0071 30.2485L11.496 27.7374C10.6173 26.8587 10.6173 25.4341 11.496 24.5554L13.9506 22.1008ZM15.5416 24.0453L13.4405 26.1464L15.598 28.3039L17.6992 26.2028L15.5416 24.0453Z" fill="#FE7701"/>
<path fill-rule="evenodd" clip-rule="evenodd" d="M22.7017 5.22607C22.7017 4.53572 23.2613 3.97607 23.9517 3.97607C27.0986 3.97607 29.6497 6.52716 29.6497 9.67409C29.6497 11.0635 29.1508 12.3397 28.3237 13.3284C27.7184 14.052 26.9357 14.6239 26.0404 14.9767C25.3981 15.2299 24.6723 14.9144 24.4191 14.2722C24.166 13.6299 24.4814 12.904 25.1237 12.6509C25.6241 12.4536 26.0646 12.1326 26.4062 11.7243C26.871 11.1687 27.1497 10.4556 27.1497 9.67409C27.1497 7.90787 25.7179 6.47607 23.9517 6.47607C23.2613 6.47607 22.7017 5.91643 22.7017 5.22607Z" fill="#ebebeb"/>
<path fill-rule="evenodd" clip-rule="evenodd" d="M24.1143 13.7719C24.2096 13.0882 24.8412 12.6111 25.5249 12.7065C31.2965 13.511 35.7385 18.4644 35.7385 24.4574C35.7385 25.1478 35.1789 25.7074 34.4885 25.7074C33.7982 25.7074 33.2385 25.1478 33.2385 24.4574C33.2385 19.729 29.7331 15.8172 25.1798 15.1825C24.496 15.0872 24.019 14.4557 24.1143 13.7719Z" fill="#ebebeb"/>
</svg>
