<svg width="36" height="36" viewBox="0 0 36 36" fill="none" xmlns="http://www.w3.org/2000/svg">
<path fill-rule="evenodd" clip-rule="evenodd" d="M18 3.99658C11.1925 3.99658 5.51707 8.85548 4.25751 15.295C4.12498 15.9725 3.46832 16.4143 2.7908 16.2818C2.11328 16.1492 1.67148 15.4926 1.804 14.8151C3.2887 7.22459 9.97408 1.49658 18 1.49658C26.026 1.49658 32.7114 7.22459 34.1961 14.8151C34.2796 15.2422 34.135 15.682 33.8143 15.9762C33.4935 16.2704 33.0429 16.3766 32.6246 16.2565L27.8042 14.8733C27.1406 14.6829 26.7571 13.9906 26.9475 13.327C27.1379 12.6634 27.8302 12.2799 28.4938 12.4703L31.1738 13.2393C29.2256 7.84896 24.0616 3.99658 18 3.99658Z" fill="#ebebeb"/>
<path fill-rule="evenodd" clip-rule="evenodd" d="M18.0001 32.0034C24.8076 32.0034 30.4831 27.1445 31.7426 20.705C31.8751 20.0275 32.5318 19.5857 33.2093 19.7182C33.8868 19.8508 34.3286 20.5074 34.1961 21.1849C32.7114 28.7754 26.026 34.5034 18.0001 34.5034C9.97411 34.5034 3.28874 28.7754 1.80404 21.1849C1.72049 20.7578 1.86512 20.318 2.18585 20.0238C2.50658 19.7296 2.95724 19.6234 3.37557 19.7435L8.19591 21.1267C8.85949 21.3171 9.24306 22.0094 9.05264 22.673C8.86222 23.3366 8.16993 23.7201 7.50635 23.5297L4.82636 22.7607C6.77452 28.151 11.9385 32.0034 18.0001 32.0034Z" fill="#ebebeb"/>
<path fill-rule="evenodd" clip-rule="evenodd" d="M20.5136 9.41319C21.0154 9.63009 21.3181 10.1479 21.2608 10.6916L20.7834 15.2215H23.4565C23.9365 15.2215 24.3741 15.4963 24.5825 15.9287C24.791 16.361 24.7334 16.8745 24.4345 17.25L17.2953 26.2172C16.9356 26.669 16.3132 26.8156 15.7897 26.5718C15.2661 26.328 14.9778 25.7573 15.0921 25.1912L16.0413 20.4902H12.5435C12.0548 20.4902 11.6109 20.2054 11.4072 19.7612C11.2035 19.317 11.2774 18.7948 11.5963 18.4245L19.0704 9.74495C19.4272 9.33068 20.0117 9.1963 20.5136 9.41319ZM15.2695 17.9902H17.5689C17.9438 17.9902 18.2989 18.1584 18.5363 18.4486C18.7737 18.7387 18.8684 19.1201 18.7942 19.4876L18.5688 20.6038L20.8636 17.7215H19.3947C19.0404 17.7215 18.7027 17.5711 18.4657 17.3077C18.2286 17.0444 18.1145 16.6928 18.1516 16.3405L18.3554 14.4065L15.2695 17.9902Z" fill="#FE7701"/>
</svg>
