<?xml version="1.0" encoding="UTF-8"?>
<svg width="21px" height="20px" viewBox="0 0 21 20" version="1.1" xmlns="http://www.w3.org/2000/svg" xmlns:xlink="http://www.w3.org/1999/xlink">
    <title>icon4</title>
    <g id="页面-1" stroke="none" stroke-width="1" fill="none" fill-rule="evenodd">
        <g id="WEB_Deepcoin-1" transform="translate(-1381.000000, -18.000000)">
            <g id="top" transform="translate(-206.293349, 0.000000)">
                <g id="右" transform="translate(1311.000000, 11.000000)">
                    <g id="icon4" transform="translate(277.327140, 7.327140)">
                        <rect id="矩形" x="0" y="0" width="19.3457209" height="19.3457209"></rect>
                        <g id="编组-59" transform="translate(0.295310, 0.478920)" stroke="#EBEBEB" stroke-linecap="round" stroke-linejoin="round">
                            <circle id="椭圆形" cx="9.18556954" cy="9.18556954" r="6.18546906"></circle>
                            <line x1="8.95317718" y1="0.116317831" x2="8.95317718" y2="1.42417557" id="直线-9"></line>
                            <line x1="15.4341727" y1="2.60831394" x2="14.5093776" y2="3.53310902" id="直线-9"></line>
                            <line x1="17.1396572" y1="8.30279786" x2="17.1396572" y2="9.6106556" id="直线-9" transform="translate(17.372050, 9.185570) rotate(90.000000) translate(-17.372050, -9.185570) "></line>
                            <line x1="15.7628251" y1="15.4341727" x2="14.8380301" y2="14.5093776" id="直线-9"></line>
                            <line x1="8.95317718" y1="16.4892779" x2="8.95317718" y2="17.7971356" id="直线-9" transform="translate(9.185570, 17.372050) rotate(180.000000) translate(-9.185570, -17.372050) "></line>
                            <line x1="2.93696637" y1="15.7628251" x2="3.86176145" y2="14.8380301" id="直线-9"></line>
                            <line x1="0.766697154" y1="8.30279786" x2="0.766697154" y2="9.6106556" id="直线-9" transform="translate(0.999090, 9.185570) rotate(270.000000) translate(-0.999090, -9.185570) "></line>
                            <line x1="2.60831394" y1="2.93696637" x2="3.53310902" y2="3.86176145" id="直线-9"></line>
                        </g>
                    </g>
                </g>
            </g>
        </g>
    </g>
</svg>