<?xml version="1.0" encoding="UTF-8"?>
<svg width="21px" height="18px" viewBox="0 0 21 18" version="1.1" xmlns="http://www.w3.org/2000/svg" xmlns:xlink="http://www.w3.org/1999/xlink">
    <!-- Generator: Sketch 58 (84663) - https://sketch.com -->
    <title>优惠券1</title>
    <desc>Created with Sketch.</desc>
    <g id="PC福利中心" stroke="none" stroke-width="1" fill="none" fill-rule="evenodd">
        <g id="登录页-福利中心提示备份" transform="translate(-8.000000, -636.000000)" fill="#FE7701" fill-rule="nonzero">
            <g id="超值福利" transform="translate(0.000000, 615.000000)">
                <g transform="translate(7.400000, 19.200000)" id="编组">
                    <g>
                        <g id="优惠券1" transform="translate(0.000000, 1.400000)">
                            <path d="M18.85,16.6 L3.55,16.6 C2.87369795,16.6 2.22509547,16.3260722 1.74687771,15.8384776 C1.26865994,15.350883 1,14.6895629 1,14 L1,10.9666667 C1,10.7368124 1.08955331,10.5163723 1.24895923,10.3538408 C1.40836515,10.1913093 1.62456598,10.1 1.84999999,10.1 C2.55416305,10.1 3.12499999,9.51797017 3.12499999,8.8 C3.12499999,8.08202983 2.55416305,7.5 1.84999999,7.5 C1.62456598,7.5 1.40836515,7.40869075 1.24895923,7.24615922 C1.08955331,7.08362768 1,6.86318762 1,6.63333333 L1,3.6 C1,2.16405965 2.14167389,1 3.55,1 L18.85,1 C20.2583261,1 21.4,2.16405965 21.4,3.6 L21.4,6.63333333 C21.4,6.86318762 21.3104467,7.08362768 21.1510408,7.24615922 C20.9916349,7.40869075 20.775434,7.5 20.55,7.5 C19.845837,7.5 19.275,8.08202983 19.275,8.8 C19.275,9.51797017 19.845837,10.1 20.55,10.1 C20.775434,10.1 20.9916349,10.1913093 21.1510408,10.3538408 C21.3104467,10.5163723 21.4,10.7368124 21.4,10.9666667 L21.4,14 C21.4,15.4359403 20.2583261,16.6 18.85,16.6 L18.85,16.6 Z M13.75,11.4 C14.219442,11.4 14.6,11.0119801 14.6,10.5333333 C14.6,10.0546866 14.219442,9.66666666 13.75,9.66666666 L8.65000001,9.66666666 C8.18055797,9.66666666 7.8,10.0546865 7.8,10.5333333 C7.8,11.0119801 8.18055797,11.4 8.65000001,11.4 L13.75,11.4 Z M13.75,7.93333334 C14.219442,7.93333334 14.6,7.54531344 14.6,7.06666667 C14.6,6.5880199 14.219442,6.2 13.75,6.2 L8.65000001,6.2 C8.18055797,6.2 7.8,6.58801988 7.8,7.06666667 C7.8,7.54531345 8.18055797,7.93333334 8.65000001,7.93333334 L13.75,7.93333334 L13.75,7.93333334 Z" id="形状"></path>
                        </g>
                    </g>
                </g>
            </g>
        </g>
    </g>
</svg>