<svg width="36" height="36" viewBox="0 0 36 36" fill="none" xmlns="http://www.w3.org/2000/svg">
<path fill-rule="evenodd" clip-rule="evenodd" d="M31.9559 3.53027C33.309 3.53027 34.4059 4.62717 34.4059 5.98027L34.4059 30.0195C34.4059 31.3726 33.309 32.4695 31.9559 32.4695H28.3962C27.0431 32.4695 25.9461 31.3726 25.9461 30.0195L25.9461 5.98027C25.9461 4.62718 27.0431 3.53027 28.3961 3.53027L31.9559 3.53027ZM31.9059 6.03027L28.4461 6.03027L28.4461 29.9695H31.9059L31.9059 6.03027Z" fill="#C1C1C1"/>
<path fill-rule="evenodd" clip-rule="evenodd" d="M19.9152 13.198C19.9152 12.5076 20.4748 11.948 21.1652 11.948H23.9201C24.6104 11.948 25.1701 12.5076 25.1701 13.198C25.1701 13.8884 24.6104 14.448 23.9201 14.448H21.1652C20.4748 14.448 19.9152 13.8884 19.9152 13.198Z" fill="#FE7701"/>
<path fill-rule="evenodd" clip-rule="evenodd" d="M19.9152 22.8015C19.9152 22.1112 20.4748 21.5515 21.1652 21.5515H23.9201C24.6104 21.5515 25.1701 22.1112 25.1701 22.8015C25.1701 23.4919 24.6104 24.0515 23.9201 24.0515H21.1652C20.4748 24.0515 19.9152 23.4919 19.9152 22.8015Z" fill="#FE7701"/>
<path fill-rule="evenodd" clip-rule="evenodd" d="M21.502 6.94531C21.502 6.25496 20.9423 5.69531 20.252 5.69531H12.3662C5.57047 5.69531 0.0614319 11.2044 0.0614319 18.0001C0.0614319 24.7958 5.57047 30.3049 12.3662 30.3049H20.252C20.9423 30.3049 21.502 29.7452 21.502 29.0549V6.94531ZM19.002 8.19531V27.8049H12.3662C6.95118 27.8049 2.56143 23.4151 2.56143 18.0001C2.56143 12.5851 6.95118 8.19531 12.3662 8.19531H19.002Z" fill="#C1C1C1"/>
</svg>
