<svg width="108" height="108" viewBox="0 0 108 108" fill="none" xmlns="http://www.w3.org/2000/svg">
<g id="coingecko">
<path id="Vector" d="M88.6319 19.0619C97.8981 28.247 103.136 40.7368 103.194 53.7839C103.313 80.9525 81.386 103.074 54.2174 103.195C27.0491 103.314 4.92706 81.3871 4.8059 54.2181C4.68829 27.3215 26.1772 5.37093 52.969 4.81691L53.7825 4.80663C66.8297 4.74931 79.3653 9.87685 88.6319 19.0619ZM53.8003 8.52823L53.2488 8.53428C35.0671 8.83656 18.7871 19.9451 11.8931 36.8102C6.00915 51.2047 7.94197 67.3967 16.5712 79.8849C20.7014 70.6286 21.1719 62.5551 22.0917 51.5876L22.0642 51.9145C22.7476 42.1192 25.5444 33.9911 42.2612 29.3865C46.1076 28.449 50.1144 28.7876 54.1712 29.743L54.216 29.7323L54.1712 29.7287C58.8368 28.2768 64.4509 28.8111 66.5588 33.2365C66.7131 33.5139 66.8182 33.7737 66.8792 34.0171L66.8903 34.0492C66.8889 34.0483 66.8875 34.0473 66.8861 34.0464L66.8903 34.0636C70.3553 35.4324 73.7776 36.787 77.0785 37.7424C94.5484 42.5 92.7906 52.0514 84.2127 60.0366C82.0963 62.2193 79.8369 64.2711 78.3618 65.7651C71.8239 72.4277 60.1706 85.4678 62.0634 98.7823L62.0728 98.8053C65.3497 98.2138 68.5518 97.2646 71.6217 95.9749C88.5901 88.8503 99.595 72.2049 99.5051 53.8017C99.3768 28.6825 78.9194 8.4185 53.8003 8.52823ZM84.4928 57.8178L84.2806 57.9355C82.8932 58.6965 81.4442 59.3492 79.9872 59.951C77.2688 61.0783 74.4511 61.9495 71.5708 62.5532C68.7194 63.1163 65.8134 63.3555 62.9083 63.2662C60.1139 63.1861 57.306 62.642 54.8544 61.1149L54.6666 60.9954L54.6142 61.055C56.2842 62.0375 57.9722 64.2893 61.3541 64.2893C70.9684 64.2893 78.2102 61.626 84.4928 57.8178ZM79.0461 49.6809C78.6689 49.683 78.3008 49.7969 77.9884 50.0082C77.6759 50.2195 77.4331 50.5187 77.2907 50.868C77.1484 51.2173 77.1127 51.601 77.1884 51.9705C77.264 52.34 77.4476 52.6788 77.7158 52.9441C77.984 53.2093 78.3248 53.389 78.6952 53.4605C79.0655 53.5321 79.4488 53.4922 79.7965 53.3459C80.1441 53.1996 80.4406 52.9535 80.6484 52.6387C80.8562 52.3239 80.966 51.9545 80.9639 51.5773C80.9602 51.0718 80.7562 50.5884 80.3968 50.2329C80.0373 49.8775 79.5516 49.679 79.0461 49.6809ZM47.5512 34.0065L47.4058 34.0075C42.6141 34.0874 38.7552 37.9976 38.7569 42.8079C38.7591 47.6668 42.6996 51.6041 47.5584 51.6022C52.3687 51.6001 56.2757 47.738 56.3517 42.9463L56.3526 42.8008L56.3492 42.7972C56.3452 37.9409 52.4076 34.0065 47.5512 34.0065ZM47.5549 36.6908C50.9727 36.6908 53.7433 39.4613 53.7433 42.8792C53.7433 46.2968 50.9727 49.0676 47.5549 49.0676C44.137 49.0676 41.3663 46.2968 41.3663 42.8792C41.3663 39.5001 44.0745 36.7539 47.4386 36.6918L47.5549 36.6908Z" fill="#FFFFFF"/>
</g>
</svg>
