<?xml version="1.0" encoding="UTF-8"?>
<svg width="18px" height="19px" viewBox="0 0 18 19" version="1.1" xmlns="http://www.w3.org/2000/svg" xmlns:xlink="http://www.w3.org/1999/xlink">
    <title>gy1</title>
    <g id="1-首页" stroke="none" stroke-width="1" fill="none" fill-rule="evenodd">
        <g id="WEB_demo1白" transform="translate(-1214.000000, -5463.000000)">
            <g id="10底部" transform="translate(-479.000000, 5347.000000)">
                <g id="关注" transform="translate(1690.361836, 56.000000)">
                    <g id="gy1" transform="translate(2.638164, 60.248047)">
                        <rect id="矩形备份-28" x="0" y="0" width="18" height="18"></rect>
                        <g id="编组" transform="translate(1.108183, 0.996554)" fill="#FFFFFF" fill-rule="nonzero">
                            <path d="M8.70632604,1.11939815e-06 C9.5200569,9.36624286e-05 10.3318444,0.00601641638 11.1491844,0.0519177595 C12.4127053,0.11311955 13.5321058,0.399385991 14.4580296,1.32530986 C15.3819792,2.24925948 15.6702199,3.37063422 15.7314217,4.63415507 C15.7926235,5.72196754 15.7827523,6.80188301 15.7827523,7.89166974 C15.7827523,8.98145647 15.7945978,10.0613719 15.7314217,11.1491844 C15.6702199,12.4127053 15.3839535,13.5321058 14.4580296,14.4580296 C13.53408,15.3819792 12.4127053,15.6702199 11.1491844,15.7314217 C10.0613719,15.7926235 8.98145647,15.7827523 7.89166974,15.7827523 C6.80385726,15.7827523 5.72394179,15.7926235 4.63415507,15.7314217 C3.37063422,15.6702199 2.25123373,15.3839535 1.32530986,14.4580296 C0.401360243,13.53408 0.11311955,12.4127053 0.0519177595,11.1491844 C-0.00928403133,10.0613719 0.000587225258,8.97948222 0.000587225258,7.89166974 L1.11939815e-06,7.07701344 C9.36624286e-05,6.26328258 0.00601641638,5.45149511 0.0519177595,4.63415507 C0.11311955,3.37063422 0.399385991,2.25123373 1.32530986,1.32530986 C2.24925948,0.401360243 3.37063422,0.11311955 4.63415507,0.0519177595 C5.72196754,-0.00928403133 6.80188301,0.000587225258 7.89166974,0.000587225258 Z M7.88969549,3.84248029 C5.64892024,3.84248029 3.84050604,5.65089449 3.84050604,7.89166974 C3.84050604,10.132445 5.64892024,11.9408592 7.88969549,11.9408592 C10.1304707,11.9408592 11.9388849,10.132445 11.9388849,7.89166974 C11.9388849,5.65089449 10.1304707,3.84248029 7.88969549,3.84248029 Z M7.89181666,5.26557103 C9.33784551,5.26557103 10.5179154,6.44564089 10.5179154,7.89166974 C10.5179154,9.33769859 9.33784551,10.5177685 7.89181666,10.5177685 C6.44578781,10.5177685 5.26571795,9.33769859 5.26571795,7.89166974 C5.26571795,6.44564089 6.44578781,5.26557103 7.89181666,5.26557103 Z M12.1047221,2.7309768 C11.5815455,2.7309768 11.1590557,3.15346658 11.1590557,3.67664318 C11.1590557,4.19981978 11.5815455,4.62230956 12.1047221,4.62230956 C12.6278986,4.62230956 13.0484142,4.20179403 13.0503884,3.67664318 C13.0503884,3.15346658 12.6278986,2.7309768 12.1047221,2.7309768 Z" id="形状结合"></path>
                        </g>
                    </g>
                </g>
            </g>
        </g>
    </g>
</svg>