<svg width="54" height="54" viewBox="0 0 54 54" fill="none" xmlns="http://www.w3.org/2000/svg">
<g id="gy11">
<g id="Group 10470">
<path id="Subtract" fill-rule="evenodd" clip-rule="evenodd" d="M8.85588 8.85587C4.04375 13.668 1.34033 20.1946 1.34033 27C1.34033 33.8054 4.04375 40.332 8.85588 45.1441C13.668 49.9562 20.1946 52.6597 27 52.6597C33.8054 52.6597 40.332 49.9562 45.1441 45.1441C49.9562 40.332 52.6597 33.8054 52.6597 27C52.6597 20.1946 49.9562 13.668 45.1441 8.85587C40.332 4.04375 33.8054 1.34033 27 1.34033C20.1946 1.34033 13.668 4.04375 8.85588 8.85587ZM13.7 11.7306C9.94727 14.3287 13.7 17.0229 13.7 17.0229L13.7492 34.7238C9.85318 38.2349 14.1341 40.2064 14.1341 40.2064L22.9375 40.3027V44.1067H25.5826V40.3027H30.8706V44.1067H33.3724L33.4194 40.3027C37.1722 40.4951 41.6947 39.9178 43.4267 34.6276C45.1587 29.3353 40.7325 25.9076 40.7325 25.9076C40.7325 25.9076 44.0468 23.9318 43.9078 18.7549C42.0796 10.3835 33.5178 11.4441 33.5178 11.4441V7.78758H30.8235V11.5382H25.3409V7.78758H22.9824V11.6836C22.9824 11.6836 17.3565 11.2987 13.7 11.7306Z" fill="#FFFFFF"/>
<path id="Vector" d="M33.949 35.1958C34.5162 35.1958 35.06 34.9705 35.461 34.5695C35.8621 34.1685 36.0873 33.6246 36.0873 33.0575V21.2968C36.0873 20.7297 35.8621 20.1858 35.461 19.7848C35.06 19.3838 34.5162 19.1585 33.949 19.1585H22.7122C20.9374 15.7992 20.05 15.1748 20.05 17.2832V33.0575C20.05 33.6246 20.2753 34.1685 20.6763 34.5695C21.0774 34.9705 21.6212 35.1958 22.1884 35.1958H33.949ZM25.8406 28.0688C25.6651 28.0689 25.4912 28.0343 25.3291 27.9672C25.1669 27.9 25.0195 27.8016 24.8954 27.6775C24.7713 27.5534 24.6728 27.406 24.6056 27.2439C24.5385 27.0817 24.5039 26.9079 24.5039 26.7324C24.5039 26.5569 24.5385 26.3831 24.6056 26.2209C24.6728 26.0587 24.7713 25.9114 24.8954 25.7873C25.0195 25.6632 25.1669 25.5647 25.3291 25.4976C25.4912 25.4305 25.6651 25.3959 25.8406 25.3959C26.195 25.396 26.5348 25.5368 26.7854 25.7875C27.036 26.0381 27.1768 26.378 27.1768 26.7324C27.1768 27.0868 27.036 27.4267 26.7854 27.6773C26.5348 27.9279 26.195 28.0688 25.8406 28.0688ZM31.1863 28.0688C31.0108 28.0689 30.837 28.0343 30.6748 27.9672C30.5127 27.9 30.3653 27.8016 30.2412 27.6775C30.117 27.5534 30.0186 27.406 29.9514 27.2439C29.8842 27.0817 29.8496 26.9079 29.8496 26.7324C29.8496 26.5569 29.8842 26.3831 29.9514 26.2209C30.0186 26.0587 30.117 25.9114 30.2412 25.7873C30.3653 25.6632 30.5127 25.5647 30.6748 25.4976C30.837 25.4305 31.0108 25.3959 31.1863 25.3959C31.5407 25.396 31.8806 25.5368 32.1312 25.7875C32.3818 26.0381 32.5225 26.378 32.5225 26.7324C32.5225 27.0868 32.3818 27.4267 32.1312 27.6773C31.8806 27.9279 31.5407 28.0688 31.1863 28.0688Z" fill="#FFFFFF"/>
</g>
</g>
</svg>
