<?xml version="1.0" encoding="UTF-8"?>
<svg width="19px" height="19px" viewBox="0 0 19 19" version="1.1" xmlns="http://www.w3.org/2000/svg" xmlns:xlink="http://www.w3.org/1999/xlink">
    <title>gy2</title>
    <g id="1-首页" stroke="none" stroke-width="1" fill="none" fill-rule="evenodd">
        <g id="WEB_demo1白" transform="translate(-1272.000000, -5463.000000)">
            <g id="10底部" transform="translate(-479.000000, 5347.000000)">
                <g id="关注" transform="translate(1690.361836, 56.000000)">
                    <g id="gy2" transform="translate(60.875000, 60.248047)">
                        <rect id="矩形备份-28" x="0" y="0" width="18" height="18"></rect>
                        <path d="M14,1 C15.6568542,1 17,2.34314575 17,4 L17,14 C17,15.6568542 15.6568542,17 14,17 L4,17 C2.34314575,17 1,15.6568542 1,14 L1,4 C1,2.34314575 2.34314575,1 4,1 L14,1 Z M6.99806465,4.97531711 L4.05462506,4.97531711 L4.05462506,5.14776105 L5.00207565,6.28945883 C5.09721713,6.37468974 5.14478787,6.4955987 5.13091308,6.6204719 L5.13091308,6.6204719 L5.13091308,11.10005 C5.15668056,11.2606012 5.1071277,11.4270988 4.99216508,11.5440436 L4.99216508,11.5440436 L3.92578764,12.8343999 L3.92578764,13.0068439 L6.95445814,13.0068439 L6.95445814,12.8343999 L5.8880807,11.5440436 C5.77311808,11.4270988 5.71563677,11.2625834 5.73942214,11.10005 L5.73942214,11.10005 L5.73942214,7.22501673 L8.39149094,13.0048617 L8.69871864,13.0048617 L10.97815,7.22501673 L10.97815,11.8393786 C10.97815,11.9602876 10.97815,11.9840729 10.8968833,12.0653396 L10.8968833,12.0653396 L10.0782701,12.8601674 L10.0782701,13.0246829 L14.0583554,13.0246829 L14.0583554,12.852239 L13.2655098,12.0772323 C13.1941537,12.0256973 13.1604577,11.9384843 13.1743325,11.8512713 L13.1743325,11.8512713 L13.1743325,6.14872872 C13.1604577,6.06349781 13.1941537,5.97628478 13.2655098,5.9227677 L13.2655098,5.9227677 L14.0742124,5.14776105 L14.0742124,4.97928134 L11.2695208,4.97928134 L9.26956753,9.96033433 L6.99806465,4.97531711 Z" id="形状结合" fill="#FFFFFF"></path>
                        <g id="编组" transform="translate(3.925788, 4.975317)"></g>
                    </g>
                </g>
            </g>
        </g>
    </g>
</svg>