<?xml version="1.0" encoding="UTF-8"?>
<svg width="19px" height="19px" viewBox="0 0 19 19" version="1.1" xmlns="http://www.w3.org/2000/svg" xmlns:xlink="http://www.w3.org/1999/xlink">
    <title>gy7</title>
    <g id="1-首页" stroke="none" stroke-width="1" fill="none" fill-rule="evenodd">
        <g id="WEB_demo1白" transform="translate(-1326.000000, -5503.000000)">
            <g id="10底部" transform="translate(-479.000000, 5347.000000)">
                <g id="关注" transform="translate(1690.361836, 56.000000)">
                    <g id="gy7" transform="translate(115.386475, 100.013414)">
                        <rect id="矩形" opacity="0.171293713" x="0" y="0" width="18" height="18"></rect>
                        <g id="编组" transform="translate(0.573021, 0.573021)" fill="#FFFFFF">
                            <path d="M8.42697872,0 C3.77175257,0 0,3.77175257 0,8.42697872 C0,13.0822049 3.77175257,16.8539574 8.42697872,16.8539574 C13.0822049,16.8539574 16.8539574,13.0822049 16.8539574,8.42697872 C16.8539574,3.77175257 13.0822049,0 8.42697872,0 Z M12.9749233,5.49105566 L11.4677007,12.5938881 C11.3566033,13.09753 11.0566401,13.2197372 10.6381729,12.9827292 L8.34215823,11.2903443 L7.23488665,12.3568801 C7.11267942,12.4790873 7.00898844,12.5827783 6.77198047,12.5827783 L6.93492345,10.2460279 L11.189957,6.40205502 C11.3751195,6.23911205 11.1492213,6.14653081 10.9048068,6.30947379 L5.64619265,9.62017877 L3.379804,8.91285813 C2.88727183,8.75732166 2.87616208,8.42032596 3.48349498,8.18331799 L12.3379644,4.76892203 C12.749025,4.62079205 13.1082402,4.86890976 12.9749233,5.49105566 L12.9749233,5.49105566 Z" id="形状"></path>
                        </g>
                    </g>
                </g>
            </g>
        </g>
    </g>
</svg>