<?xml version="1.0" encoding="UTF-8"?>
<svg width="13px" height="12px" viewBox="0 0 13 12" version="1.1" xmlns="http://www.w3.org/2000/svg" xmlns:xlink="http://www.w3.org/1999/xlink">
    <title>hot</title>
    <defs>
        <linearGradient x1="50.0001607%" y1="-4.48781049e-06%" x2="50.0001607%" y2="100%" id="linearGradient-1">
            <stop stop-color="#FDC80D" offset="0%"></stop>
            <stop stop-color="#FE7701" offset="100%"></stop>
        </linearGradient>
    </defs>
    <g id="页面-1" stroke="none" stroke-width="1" fill="none" fill-rule="evenodd">
        <g id="WEB_Deepcoin-2" transform="translate(-962.000000, -21.000000)">
            <g id="top" transform="translate(-206.293349, 0.000000)">
                <g id="左" transform="translate(542.000000, 19.000000)">
                    <g id="编组-48" transform="translate(627.000000, 1.999950)">
                        <rect id="矩形" x="0" y="4.97307292e-05" width="12" height="12"></rect>
                        <path d="M10.270245,5.43075946 C10.011845,4.84335946 9.641845,4.32287946 9.171245,3.88559946 L8.785445,3.52740946 C8.728445,3.47648946 8.638345,3.49922946 8.613145,3.57171946 L8.440845,4.07195946 C8.333355,4.38582946 8.135945,4.70630946 7.856155,5.02164946 C7.841945,5.03719946 7.822505,5.04673946 7.801765,5.04849946 C7.780735,5.05040946 7.759995,5.04306946 7.744765,5.02839946 C7.726195,5.01239946 7.716915,4.98818946 7.718365,4.96397946 C7.767385,4.15647946 7.528795,3.24581946 7.006335,2.25473946 C6.574105,1.43124946 5.973625,0.788679461 5.223165,0.340829461 L4.675615,0.0147794615 C4.603965,-0.0282205385 4.512585,0.0281294615 4.516505,0.112649461 L4.545655,0.756389461 C4.565525,1.19631946 4.515195,1.58531946 4.395825,1.90858946 C4.249915,2.30418946 4.040465,2.67176946 3.772715,3.00163946 C3.584445,3.23231946 3.373695,3.44024946 3.143075,3.61999946 C2.584945,4.05316946 2.124865,4.61781946 1.813305,5.24952946 C1.499135,5.88813946 1.333355,6.60304946 1.333355,7.31927946 C1.333355,7.95231946 1.456645,8.56519946 1.700605,9.14339946 C1.936595,9.69999946 2.273245,10.2016995 2.701555,10.6306995 C3.131035,11.0598995 3.629555,11.3978995 4.185075,11.6326995 C4.760465,11.8766995 5.370385,12.0000995 6.000165,12.0000995 C6.629805,12.0000995 7.239715,11.8766995 7.815105,11.6339995 C8.370645,11.3991995 8.870445,11.0625995 9.298645,10.6320995 C9.728145,10.2027995 10.064945,9.70129946 10.299445,9.14459946 C10.543445,8.56659946 10.666645,7.95348946 10.666645,7.32059946 C10.666645,6.66599946 10.534145,6.03032946 10.270245,5.43075946 Z" id="路径" fill="url(#linearGradient-1)" fill-rule="nonzero"></path>
                    </g>
                </g>
            </g>
        </g>
    </g>
</svg>