<?xml version="1.0" encoding="UTF-8"?>
<svg width="14px" height="14px" viewBox="0 0 14 14" version="1.1" xmlns="http://www.w3.org/2000/svg" xmlns:xlink="http://www.w3.org/1999/xlink">
    <!-- Generator: Sketch 58 (84663) - https://sketch.com -->
    <title>形状结合</title>
    <desc>Created with Sketch.</desc>
    <g id="PC福利中心" stroke="none" stroke-width="1" fill="none" fill-rule="evenodd">
        <g id="官网首页-更多备份" transform="translate(-260.000000, -23.000000)" fill="#FFFFFF">
            <g id="底图" transform="translate(-560.000000, 0.000000)">
                <g id="1" transform="translate(20.000000, 0.000000)">
                    <g id="编组-6" transform="translate(800.000000, 23.000000)">
                        <path d="M8.75547266,10.4741786 L8.75547266,14 L5.32243262,14 L5.32243262,10.4741786 L8.75547266,10.4741786 Z M14,10.4741786 L14,14 L10.56696,14 L10.56696,10.4741786 L14,10.4741786 Z M3.43304004,10.4741786 L3.43304004,14 L0,14 L0,10.4741786 L3.43304004,10.4741786 Z M3.43304004,5.2370893 L3.43304004,8.7629107 L0,8.7629107 L0,5.2370893 L3.43304004,5.2370893 Z M8.75547266,5.2370893 L8.75547266,8.7629107 L5.32243262,8.7629107 L5.32243262,5.2370893 L8.75547266,5.2370893 Z M14,5.2370893 L14,8.7629107 L10.56696,8.7629107 L10.56696,5.2370893 L14,5.2370893 Z M3.43304004,0 L3.43304004,3.5258214 L0,3.5258214 L0,0 L3.43304004,0 Z M8.75547266,0 L8.75547266,3.5258214 L5.32243262,3.5258214 L5.32243262,0 L8.75547266,0 Z M14,0 L14,3.5258214 L10.56696,3.5258214 L10.56696,0 L14,0 Z" id="形状结合"></path>
                    </g>
                </g>
            </g>
        </g>
    </g>
</svg>