<svg width="36" height="36" viewBox="0 0 36 36" fill="none" xmlns="http://www.w3.org/2000/svg">
<path fill-rule="evenodd" clip-rule="evenodd" d="M5.11717 9.63184C4.3495 9.63184 3.72717 10.2542 3.72717 11.0218V14.1873C6.1078 15.0657 7.80528 17.3535 7.80528 20.0398C7.80528 22.7261 6.1078 25.0139 3.72717 25.8923V29.1978C3.72717 29.8881 4.28682 30.4478 4.97717 30.4478H31.0228C31.7132 30.4478 32.2728 29.8881 32.2728 29.1978V26.0975C29.5467 25.43 27.5244 22.9714 27.5244 20.0398C27.5244 17.1082 29.5467 14.6496 32.2728 13.9821V11.0218C32.2728 10.2542 31.6505 9.63184 30.8828 9.63184H5.11717ZM1.22717 11.0218C1.22717 8.87345 2.96878 7.13184 5.11717 7.13184H30.8828C33.0312 7.13184 34.7728 8.87345 34.7728 11.0218V15.0589C34.7728 15.7265 34.2483 16.2762 33.5815 16.3076C31.6017 16.4006 30.0244 18.0363 30.0244 20.0398C30.0244 22.0432 31.6017 23.679 33.5815 23.772C34.2483 23.8034 34.7728 24.3531 34.7728 25.0207V29.1978C34.7728 31.2688 33.0939 32.9478 31.0228 32.9478H4.97717C2.9061 32.9478 1.22717 31.2688 1.22717 29.1978V24.9437C1.22717 24.3406 1.65779 23.8235 2.25092 23.7143C3.98874 23.3945 5.30528 21.8696 5.30528 20.0398C5.30528 18.21 3.98874 16.6851 2.25092 16.3652C1.65779 16.2561 1.22717 15.739 1.22717 15.1359V11.0218Z" fill="#ebebeb"/>
<path fill-rule="evenodd" clip-rule="evenodd" d="M18.2252 13.5698C18.701 13.5698 19.1355 13.8399 19.3461 14.2666L20.6127 16.8331L23.445 17.2447C23.9159 17.3131 24.3071 17.6429 24.4541 18.0954C24.6011 18.5479 24.4785 19.0447 24.1378 19.3768L22.0883 21.3745L22.5721 24.1953C22.6526 24.6643 22.4598 25.1382 22.0749 25.4179C21.6899 25.6976 21.1796 25.7345 20.7584 25.513L18.2252 24.1812L15.6919 25.513C15.2708 25.7345 14.7604 25.6976 14.3755 25.4179C13.9906 25.1382 13.7978 24.6643 13.8782 24.1953L14.362 21.3745L12.3126 19.3768C11.9719 19.0447 11.8492 18.5479 11.9963 18.0954C12.1433 17.6429 12.5345 17.3131 13.0053 17.2447L15.8376 16.8331L17.1043 14.2666C17.3148 13.8399 17.7494 13.5698 18.2252 13.5698ZM18.2252 17.6443L17.7886 18.5288C17.6066 18.8977 17.2546 19.1535 16.8475 19.2126L15.8713 19.3545L16.5777 20.043C16.8723 20.3302 17.0067 20.7439 16.9371 21.1494L16.7704 22.1216L17.6435 21.6626C18.0077 21.4712 18.4427 21.4712 18.8069 21.6626L19.68 22.1216L19.5132 21.1494C19.4437 20.7439 19.5781 20.3302 19.8727 20.043L20.5791 19.3545L19.6029 19.2126C19.1958 19.1535 18.8438 18.8977 18.6617 18.5288L18.2252 17.6443Z" fill="#FE7701"/>
<path fill-rule="evenodd" clip-rule="evenodd" d="M4.62012 8.57767C4.47659 7.90239 4.90764 7.23862 5.58291 7.09509L25.1845 2.92865C27.2806 2.4831 29.3411 3.82117 29.7866 5.91732L30.1299 7.5323C30.2734 8.20757 29.8424 8.87135 29.1671 9.01488C28.4918 9.15841 27.8281 8.72735 27.6845 8.05208L27.3412 6.4371C27.1828 5.69149 26.4499 5.21554 25.7042 5.37402L6.10269 9.54046C5.42742 9.68399 4.76365 9.25294 4.62012 8.57767Z" fill="#ebebeb"/>
</svg>
