<svg width="36" height="36" viewBox="0 0 36 36" fill="none" xmlns="http://www.w3.org/2000/svg">
<path fill-rule="evenodd" clip-rule="evenodd" d="M31.6931 14.7773H4.52771V12.2773H31.6931V14.7773Z" fill="#ebebeb"/>
<path fill-rule="evenodd" clip-rule="evenodd" d="M2.3623 8.81738C2.3623 6.74632 4.04124 5.06738 6.1123 5.06738H29.8879C31.9589 5.06738 33.6379 6.74632 33.6379 8.81738V29.5346C33.6379 31.6057 31.9589 33.2846 29.8879 33.2846H6.1123C4.04123 33.2846 2.3623 31.6057 2.3623 29.5346V8.81738ZM6.1123 7.56738C5.42195 7.56738 4.8623 8.12703 4.8623 8.81738V29.5346C4.8623 30.225 5.42195 30.7846 6.1123 30.7846H29.8879C30.5782 30.7846 31.1379 30.225 31.1379 29.5346V8.81738C31.1379 8.12703 30.5782 7.56738 29.8879 7.56738H6.1123Z" fill="#ebebeb"/>
<path fill-rule="evenodd" clip-rule="evenodd" d="M11 2.24707C11.6904 2.24707 12.25 2.80671 12.25 3.49707V8.99707C12.25 9.68743 11.6904 10.2471 11 10.2471C10.3096 10.2471 9.75 9.68743 9.75 8.99707V3.49707C9.75 2.80671 10.3096 2.24707 11 2.24707Z" fill="#ebebeb"/>
<path fill-rule="evenodd" clip-rule="evenodd" d="M25 2.24707C25.6904 2.24707 26.25 2.80671 26.25 3.49707V8.99707C26.25 9.68743 25.6904 10.2471 25 10.2471C24.3096 10.2471 23.75 9.68743 23.75 8.99707V3.49707C23.75 2.80671 24.3096 2.24707 25 2.24707Z" fill="#ebebeb"/>
<path fill-rule="evenodd" clip-rule="evenodd" d="M23.8432 18.5274C24.3314 19.0156 24.3314 19.807 23.8432 20.2952L17.8723 26.2661C17.3842 26.7542 16.5927 26.7542 16.1046 26.2661L12.1568 22.3183C11.6687 21.8302 11.6687 21.0387 12.1568 20.5506C12.645 20.0624 13.4365 20.0624 13.9246 20.5506L16.9885 23.6144L22.0755 18.5274C22.5636 18.0393 23.3551 18.0393 23.8432 18.5274Z" fill="#FE7701"/>
</svg>
