<?xml version="1.0" encoding="UTF-8"?>
<svg width="13px" height="13px" viewBox="0 0 13 13" version="1.1" xmlns="http://www.w3.org/2000/svg" xmlns:xlink="http://www.w3.org/1999/xlink">
    <!-- Generator: Sketch 58 (84663) - https://sketch.com -->
    <title>wenhao-8</title>
    <desc>Created with Sketch.</desc>
    <g id="首页改版-最终" stroke="none" stroke-width="1" fill="none" fill-rule="evenodd">
        <g id="热门备份" transform="translate(-846.000000, -873.000000)" fill="#9DA3AD" fill-rule="nonzero">
            <g id="wenhao-8" transform="translate(846.000000, 873.000000)">
                <path d="M6.2921333,0 C2.83146067,0 0,2.83146067 0,6.2921333 C0,9.75280592 2.83146067,12.5842666 6.2921333,12.5842666 C9.75280592,12.5842666 12.5842666,9.75280592 12.5842666,6.2921333 C12.5842666,2.83146067 9.75280592,0 6.2921333,0 M6.2921333,11.7977482 C3.22471296,11.7977482 0.78651839,9.35955363 0.78651839,6.2921333 C0.78651839,3.22471296 3.22471296,0.78651839 6.2921333,0.78651839 C9.35955363,0.78651839 11.7977482,3.22471296 11.7977482,6.2921333 C11.7977482,9.35955363 9.35955363,11.7977482 6.2921333,11.7977482" id="形状"></path>
                <path d="M6.21348007,8.65168847 C5.97752041,8.65168847 5.82022779,8.73034169 5.66292135,8.8876343 C5.50561491,9.04494075 5.42696168,9.20224719 5.42696168,9.43820686 C5.42696168,9.67415269 5.50562873,9.83145914 5.66292135,9.98876558 C5.82022779,10.146072 5.97752041,10.2247114 6.21348007,10.2247114 C6.44943974,10.2247114 6.60674618,10.146072 6.7640388,9.98876558 C6.92134524,9.83145914 6.99999846,9.67415269 6.99999846,9.43820686 C6.99999846,9.20224719 6.92134524,9.04494075 6.7640388,8.8876343 C6.60674618,8.73034169 6.44943974,8.65168847 6.21348007,8.65168847 L6.21348007,8.65168847 Z M6.44943974,2.2022349 C5.66290752,2.2022349 5.0337094,2.43819457 4.56179007,2.91010007 C4.01123135,3.3820194 3.77528551,4.01123135 3.77528551,4.79774974 L4.95505618,4.79774974 C4.95505618,4.32584423 5.0337094,3.93257813 5.26965524,3.69663229 C5.50561491,3.3820194 5.82022779,3.22471296 6.37078652,3.22471296 C6.7640388,3.22471296 7.07865169,3.30338 7.31461135,3.53932584 C7.55055719,3.77528551 7.62921041,4.08988457 7.62921041,4.40449745 C7.62921041,4.71909652 7.55055719,4.95505618 7.31461135,5.19101584 L7.07865169,5.42696168 C6.44943974,6.05617363 5.97752041,6.52809296 5.82022779,6.84269202 C5.66292135,7.07865169 5.66292135,7.47190397 5.66292135,7.86517008 L5.66292135,8.02247652 L6.84269202,8.02247652 L6.84269202,7.86517008 C6.84269202,7.62921041 6.92135907,7.39325075 6.99999846,7.15730491 C7.07865169,6.92134524 7.23595813,6.7640388 7.47190397,6.60674618 C8.02247652,6.13482685 8.33707558,5.89888101 8.4157288,5.74157457 C8.73034169,5.42696168 8.80898108,4.95504235 8.80898108,4.40449745 C8.80898108,3.77528551 8.57303524,3.22471296 8.17978296,2.83146067 C7.70786363,2.35955517 7.15730491,2.2022349 6.44943974,2.2022349 L6.44943974,2.2022349 Z" id="形状"></path>
            </g>
        </g>
    </g>
</svg>